<svg width="267" height="178" viewBox="0 0 267 178" fill="none" xmlns="http://www.w3.org/2000/svg">
<path d="M7.7692 147.253C8.4282 147.447 9.13889 147.615 9.90126 147.783C10.6636 147.951 11.4389 148.041 12.2401 148.041C13.5064 148.041 14.6176 147.847 15.5738 147.473C16.5171 147.098 17.3183 146.568 17.9385 145.909C18.5716 145.25 19.0368 144.475 19.3599 143.583C19.67 142.705 19.825 141.761 19.825 140.753C19.825 139.578 19.6183 138.505 19.2048 137.536C18.7913 136.567 18.2357 135.753 17.525 135.081C16.8143 134.409 15.9873 133.892 15.0311 133.517C14.0749 133.143 13.0541 132.962 11.9558 132.962H7.7692V147.253ZM1.87695 130.364H12.9895C14.8244 130.364 16.543 130.584 18.1452 131.036C19.7475 131.476 21.143 132.135 22.3318 132.988C23.5206 133.84 24.451 134.9 25.1487 136.14C25.8336 137.381 26.1695 138.802 26.1695 140.405C26.1695 141.994 25.8465 143.389 25.1875 144.565C24.5156 145.754 23.6498 146.736 22.5644 147.524C21.479 148.3 20.2385 148.881 18.8559 149.256C17.4604 149.643 16.0519 149.824 14.6306 149.824C14.0232 149.824 13.3772 149.811 12.7052 149.773C12.0462 149.747 11.3872 149.695 10.767 149.643C10.1468 149.579 9.57822 149.514 9.04844 149.45C8.51865 149.385 8.09224 149.308 7.7692 149.23V165.485H1.87695V130.364Z" fill="#002490" stroke="#002490" stroke-width="2.01673" stroke-miterlimit="22.926" stroke-linecap="round" stroke-linejoin="round"/>
<path d="M44.6302 149.708C43.8549 149.953 43.0538 150.238 42.2139 150.561C41.3869 150.884 40.5728 151.233 39.7717 151.633C38.9705 152.034 38.2211 152.46 37.4975 152.912C36.7739 153.378 36.1407 153.869 35.5851 154.398C35.0424 154.915 34.616 155.471 34.2929 156.052C33.9699 156.647 33.8148 157.254 33.8148 157.9C33.8148 158.559 33.9311 159.179 34.1766 159.774C34.4222 160.368 34.7452 160.898 35.1458 161.337C35.5463 161.79 36.0115 162.138 36.5542 162.397C37.084 162.655 37.6267 162.785 38.1953 162.785C38.8026 162.785 39.3711 162.707 39.9267 162.552C40.4695 162.397 40.9992 162.177 41.5161 161.906C42.033 161.635 42.5369 161.324 43.0538 160.963C43.5706 160.601 44.0875 160.213 44.6302 159.813V149.708ZM50.0185 165.485H44.6302V161.777C43.9841 162.268 43.3639 162.759 42.7566 163.263C42.1363 163.78 41.4773 164.232 40.7537 164.658C40.043 165.072 39.2548 165.421 38.3891 165.679C37.5233 165.937 36.5154 166.067 35.3783 166.067C34.3188 166.067 33.3626 165.899 32.4968 165.55C31.644 165.201 30.9075 164.736 30.3131 164.115C29.7058 163.521 29.2406 162.81 28.9176 161.983C28.5945 161.156 28.4395 160.265 28.4395 159.309C28.4395 158.146 28.672 157.099 29.1372 156.169C29.5895 155.238 30.2226 154.398 31.0238 153.662C31.8249 152.925 32.7553 152.266 33.8278 151.698C34.8873 151.129 36.0244 150.612 37.2132 150.16C38.402 149.708 39.6425 149.294 40.9088 148.946C42.1751 148.597 43.4156 148.261 44.6302 147.964V146.271C44.6302 145.043 44.501 144.009 44.2684 143.157C44.01 142.317 43.674 141.632 43.2088 141.102C42.7695 140.585 42.2139 140.211 41.5678 139.978C40.9217 139.758 40.1852 139.642 39.384 139.642C38.4795 139.642 37.7301 139.758 37.1615 139.991C36.593 140.236 36.1407 140.547 35.8177 140.934C35.4817 141.309 35.2621 141.761 35.1458 142.252C35.0295 142.743 34.9649 143.247 34.9649 143.751C34.9649 144.229 34.9261 144.681 34.8615 145.121C34.784 145.547 34.6418 145.935 34.448 146.258C34.2412 146.594 33.9699 146.852 33.621 147.059C33.2721 147.253 32.8328 147.356 32.2901 147.356C31.8766 147.356 31.4889 147.279 31.153 147.124C30.8041 146.956 30.5069 146.736 30.2485 146.452C30.003 146.167 29.8091 145.831 29.6799 145.444C29.5378 145.056 29.4732 144.63 29.4732 144.177C29.4732 143.286 29.7704 142.459 30.3518 141.684C30.9462 140.908 31.7345 140.249 32.7294 139.681C33.7115 139.112 34.8744 138.673 36.2053 138.337C37.5363 138.014 38.9318 137.846 40.3919 137.846C42.1751 137.846 43.674 138.027 44.9016 138.376C46.1291 138.712 47.1241 139.203 47.8735 139.823C48.6359 140.443 49.1786 141.193 49.5146 142.084C49.8505 142.976 50.0185 143.958 50.0185 145.043V165.485Z" fill="#002490" stroke="#002490" stroke-width="2.01673" stroke-miterlimit="22.926" stroke-linecap="round" stroke-linejoin="round"/>
<path d="M57.207 138.402H62.5824V143.48C63.2673 142.718 64.0426 142.007 64.9083 141.335C65.787 140.663 66.6656 140.056 67.5831 139.539C68.5005 139.022 69.4179 138.608 70.3483 138.311C71.2657 138.001 72.1444 137.846 72.9714 137.846C73.7854 137.846 74.5866 137.988 75.4006 138.285C76.2147 138.57 76.9771 138.97 77.6748 139.474C78.3726 139.991 78.967 140.598 79.4709 141.296C79.9878 141.994 80.3108 142.756 80.453 143.583C80.9052 142.782 81.5384 142.046 82.3137 141.348C83.089 140.65 83.9676 140.043 84.9238 139.526C85.88 139.022 86.8879 138.608 87.9475 138.311C89.0071 138.001 90.0537 137.846 91.0745 137.846C92.0953 137.846 93.0644 138.079 93.956 138.531C94.8605 138.983 95.6488 139.59 96.3207 140.366C96.9926 141.128 97.5224 142.033 97.91 143.053C98.2977 144.1 98.4915 145.186 98.4915 146.348V165.485H93.0903V147.137C93.0903 146.374 92.9611 145.651 92.7026 144.979C92.4313 144.294 92.0953 143.7 91.656 143.183C91.2167 142.679 90.6998 142.265 90.1183 141.968C89.5239 141.658 88.9037 141.516 88.2576 141.516C87.5082 141.516 86.7587 141.606 85.9963 141.813C85.234 142.02 84.4974 142.291 83.8126 142.64C83.1277 143.002 82.4946 143.415 81.926 143.88C81.3575 144.346 80.8923 144.85 80.5563 145.366V165.485H75.1939V147.137C75.1939 146.374 75.0647 145.651 74.7933 144.979C74.5349 144.294 74.186 143.7 73.7208 143.183C73.2686 142.679 72.7517 142.265 72.1702 141.968C71.5758 141.658 70.9556 141.516 70.2966 141.516C69.6118 141.516 68.9011 141.619 68.1645 141.826C67.4409 142.033 66.7173 142.317 66.0196 142.666C65.3218 143.028 64.6757 143.428 64.0813 143.893C63.4869 144.359 62.983 144.85 62.5824 145.366V165.485H57.207V138.402Z" fill="#002490" stroke="#002490" stroke-width="2.01673" stroke-miterlimit="22.926" stroke-linecap="round" stroke-linejoin="round"/>
<path d="M104.911 139.397L108.697 137.859H110.261V165.486H104.911V139.397ZM107.534 124.537C107.961 124.537 108.348 124.615 108.736 124.757C109.111 124.899 109.434 125.093 109.718 125.338C109.989 125.584 110.222 125.868 110.377 126.191C110.545 126.514 110.636 126.863 110.636 127.238C110.636 127.612 110.545 127.961 110.377 128.284C110.222 128.607 109.989 128.905 109.718 129.137C109.434 129.383 109.111 129.577 108.736 129.719C108.348 129.861 107.961 129.938 107.534 129.938C107.108 129.938 106.72 129.861 106.358 129.719C105.984 129.577 105.661 129.383 105.376 129.137C105.105 128.905 104.872 128.607 104.704 128.284C104.549 127.961 104.459 127.612 104.459 127.238C104.459 126.863 104.549 126.514 104.704 126.191C104.872 125.868 105.105 125.584 105.376 125.338C105.661 125.093 105.984 124.899 106.358 124.757C106.72 124.615 107.108 124.537 107.534 124.537Z" fill="#002490"/>
<path d="M104.911 139.397L108.697 137.859H110.261V165.485H104.911V139.397ZM107.534 124.537C107.961 124.537 108.348 124.614 108.736 124.757C109.111 124.899 109.434 125.092 109.718 125.338C109.989 125.583 110.222 125.868 110.377 126.191C110.545 126.514 110.636 126.863 110.636 127.237C110.636 127.612 110.545 127.961 110.377 128.284C110.222 128.607 109.989 128.904 109.718 129.137C109.434 129.382 109.111 129.576 108.736 129.718C108.348 129.861 107.961 129.938 107.534 129.938C107.108 129.938 106.72 129.861 106.358 129.718C105.984 129.576 105.661 129.382 105.376 129.137C105.105 128.904 104.872 128.607 104.704 128.284C104.549 127.961 104.459 127.612 104.459 127.237C104.459 126.863 104.549 126.514 104.704 126.191C104.872 125.868 105.105 125.583 105.376 125.338C105.661 125.092 105.984 124.899 106.358 124.757C106.72 124.614 107.108 124.537 107.534 124.537Z" stroke="#002490" stroke-width="2.01673" stroke-miterlimit="22.926" stroke-linecap="round" stroke-linejoin="round"/>
<path d="M116.814 138.402H122.164V143.532C122.681 142.769 123.249 142.046 123.857 141.361C124.464 140.676 125.084 140.056 125.743 139.539C126.402 139.022 127.074 138.608 127.772 138.311C128.47 138.001 129.18 137.846 129.904 137.846C130.498 137.846 131.041 137.937 131.545 138.117C132.049 138.298 132.488 138.531 132.863 138.815C133.251 139.125 133.548 139.461 133.755 139.862C133.974 140.249 134.091 140.676 134.091 141.102C134.091 141.981 133.819 142.64 133.264 143.079C132.721 143.532 131.959 143.751 130.989 143.751C130.382 143.751 129.891 143.687 129.542 143.57C129.167 143.441 128.844 143.299 128.56 143.131C128.263 142.976 127.953 142.834 127.656 142.705C127.358 142.575 126.971 142.511 126.531 142.511C126.17 142.511 125.821 142.627 125.446 142.834C125.097 143.041 124.735 143.338 124.361 143.712C124.012 144.1 123.637 144.539 123.275 145.056C122.901 145.56 122.539 146.116 122.164 146.723V165.485H116.814V138.402Z" fill="#002490" stroke="#002490" stroke-width="2.01673" stroke-miterlimit="22.926" stroke-linecap="round" stroke-linejoin="round"/>
<path d="M156.7 151.491H169.635L163.251 137.601L156.7 151.491ZM165.551 129.563L182.091 165.485H176.083L170.72 153.765H155.666L150.123 165.485H147.164L164.091 129.563H165.551Z" fill="#002490" stroke="#002490" stroke-width="2.01673" stroke-miterlimit="22.926" stroke-linecap="round" stroke-linejoin="round"/>
<path d="M204.577 144.992C204.577 144.243 204.422 143.597 204.099 143.041C203.789 142.498 203.414 142.02 202.975 141.607C202.716 141.374 202.406 141.154 202.032 140.948C201.644 140.728 201.243 140.547 200.817 140.392C200.391 140.224 199.938 140.095 199.473 140.004C199.008 139.914 198.582 139.875 198.155 139.875C196.992 139.875 195.894 140.147 194.873 140.715C193.852 141.271 192.961 142.033 192.198 143.002C191.423 143.958 190.829 145.083 190.389 146.362C189.95 147.654 189.73 149.024 189.73 150.484C189.73 152.086 189.937 153.572 190.363 154.968C190.777 156.35 191.345 157.565 192.069 158.599C192.78 159.645 193.62 160.472 194.589 161.067C195.558 161.661 196.592 161.958 197.703 161.958C198.504 161.958 199.279 161.855 200.016 161.648C200.765 161.428 201.437 161.17 202.032 160.847C202.639 160.524 203.156 160.162 203.595 159.774C204.034 159.387 204.37 159.012 204.577 158.65V144.992ZM204.577 161.247C204.047 161.842 203.466 162.423 202.833 162.992C202.2 163.56 201.502 164.077 200.727 164.53C199.951 164.982 199.098 165.357 198.142 165.641C197.199 165.925 196.114 166.067 194.925 166.067C193.439 166.067 192.03 165.731 190.712 165.072C189.407 164.413 188.257 163.496 187.275 162.333C186.293 161.183 185.518 159.826 184.949 158.276C184.394 156.725 184.109 155.071 184.109 153.314C184.109 151.169 184.497 149.166 185.272 147.292C186.048 145.419 187.094 143.777 188.425 142.382C189.756 140.974 191.307 139.875 193.103 139.061C194.886 138.26 196.798 137.859 198.84 137.859C199.421 137.859 200.016 137.911 200.61 138.014C201.205 138.131 201.76 138.273 202.277 138.441C202.794 138.622 203.246 138.841 203.647 139.087C204.06 139.332 204.37 139.604 204.577 139.875L208.647 137.859H209.953V176.908H204.577V161.247Z" fill="#002490" stroke="#002490" stroke-width="2.01673" stroke-miterlimit="22.926" stroke-linecap="round" stroke-linejoin="round"/>
<path d="M221.618 138.402V157.668C221.618 158.34 221.786 158.973 222.096 159.58C222.407 160.174 222.82 160.691 223.363 161.131C223.905 161.557 224.539 161.906 225.262 162.177C225.973 162.436 226.748 162.565 227.575 162.565C228.118 162.565 228.686 162.449 229.294 162.216C229.888 161.996 230.495 161.686 231.064 161.273C231.645 160.872 232.188 160.407 232.705 159.877C233.222 159.347 233.648 158.779 233.984 158.172V138.402H239.347V165.485H233.984V160.42C233.506 161.195 232.912 161.919 232.201 162.617C231.49 163.301 230.715 163.909 229.875 164.413C229.048 164.93 228.195 165.33 227.317 165.627C226.425 165.925 225.585 166.067 224.81 166.067C223.621 166.067 222.523 165.834 221.476 165.395C220.43 164.955 219.525 164.348 218.75 163.599C217.974 162.836 217.367 161.958 216.915 160.937C216.476 159.916 216.256 158.831 216.256 157.668V138.402H221.618Z" fill="#002490" stroke="#002490" stroke-width="2.01673" stroke-miterlimit="22.926" stroke-linecap="round" stroke-linejoin="round"/>
<path d="M260.202 149.708C259.427 149.953 258.626 150.238 257.799 150.561C256.959 150.884 256.145 151.233 255.344 151.633C254.556 152.034 253.793 152.46 253.07 152.912C252.346 153.378 251.713 153.869 251.17 154.398C250.615 154.915 250.188 155.471 249.865 156.052C249.542 156.647 249.387 157.254 249.387 157.9C249.387 158.559 249.503 159.179 249.749 159.774C249.994 160.368 250.317 160.898 250.718 161.337C251.132 161.79 251.597 162.138 252.126 162.397C252.656 162.655 253.199 162.785 253.78 162.785C254.375 162.785 254.956 162.707 255.499 162.552C256.042 162.397 256.572 162.177 257.088 161.906C257.605 161.635 258.109 161.324 258.626 160.963C259.143 160.601 259.673 160.213 260.202 159.813V149.708ZM265.604 165.485H260.202V161.777C259.569 162.268 258.936 162.759 258.329 163.263C257.709 163.78 257.05 164.232 256.326 164.658C255.615 165.072 254.827 165.421 253.961 165.679C253.096 165.937 252.088 166.067 250.951 166.067C249.891 166.067 248.935 165.899 248.082 165.55C247.216 165.201 246.493 164.736 245.885 164.115C245.278 163.521 244.813 162.81 244.503 161.983C244.18 161.156 244.012 160.265 244.012 159.309C244.012 158.146 244.244 157.099 244.709 156.169C245.175 155.238 245.795 154.398 246.596 153.662C247.397 152.925 248.328 152.266 249.4 151.698C250.473 151.129 251.597 150.612 252.785 150.16C253.987 149.708 255.215 149.294 256.481 148.946C257.76 148.597 258.988 148.261 260.202 147.964V146.271C260.202 145.043 260.086 144.009 259.841 143.157C259.595 142.317 259.246 141.632 258.794 141.102C258.342 140.585 257.786 140.211 257.14 139.978C256.494 139.758 255.757 139.642 254.956 139.642C254.052 139.642 253.315 139.758 252.734 139.991C252.165 140.236 251.726 140.547 251.39 140.934C251.067 141.309 250.847 141.761 250.718 142.252C250.602 142.743 250.55 143.247 250.55 143.751C250.55 144.229 250.511 144.681 250.434 145.121C250.356 145.547 250.214 145.935 250.02 146.258C249.814 146.594 249.542 146.852 249.193 147.059C248.857 147.253 248.418 147.356 247.875 147.356C247.449 147.356 247.074 147.279 246.725 147.124C246.376 146.956 246.079 146.736 245.834 146.452C245.575 146.167 245.381 145.831 245.252 145.444C245.11 145.056 245.045 144.63 245.045 144.177C245.045 143.286 245.343 142.459 245.937 141.684C246.519 140.908 247.307 140.249 248.302 139.681C249.297 139.112 250.46 138.673 251.778 138.337C253.109 138.014 254.504 137.846 255.964 137.846C257.747 137.846 259.259 138.027 260.487 138.376C261.701 138.712 262.696 139.203 263.459 139.823C264.208 140.443 264.764 141.193 265.1 142.084C265.423 142.976 265.604 143.958 265.604 145.043V165.485Z" fill="#002490" stroke="#002490" stroke-width="2.01673" stroke-miterlimit="22.926" stroke-linecap="round" stroke-linejoin="round"/>
<path d="M7.7692 147.253C8.4282 147.447 9.13889 147.615 9.90126 147.783C10.6636 147.951 11.4389 148.041 12.2401 148.041C13.5064 148.041 14.6176 147.847 15.5738 147.473C16.5171 147.098 17.3183 146.568 17.9385 145.909C18.5716 145.25 19.0368 144.475 19.3599 143.583C19.67 142.705 19.825 141.761 19.825 140.753C19.825 139.578 19.6183 138.505 19.2048 137.536C18.7913 136.567 18.2357 135.753 17.525 135.081C16.8143 134.409 15.9873 133.892 15.0311 133.517C14.0749 133.143 13.0541 132.962 11.9558 132.962H7.7692V147.253ZM1.87695 130.364H12.9895C14.8244 130.364 16.543 130.584 18.1452 131.036C19.7475 131.476 21.143 132.135 22.3318 132.988C23.5206 133.84 24.451 134.9 25.1487 136.14C25.8336 137.381 26.1695 138.802 26.1695 140.405C26.1695 141.994 25.8465 143.389 25.1875 144.565C24.5156 145.754 23.6498 146.736 22.5644 147.524C21.479 148.3 20.2385 148.881 18.8559 149.256C17.4604 149.643 16.0519 149.824 14.6306 149.824C14.0232 149.824 13.3772 149.811 12.7052 149.773C12.0462 149.747 11.3872 149.695 10.767 149.643C10.1468 149.579 9.57822 149.514 9.04844 149.45C8.51865 149.385 8.09224 149.308 7.7692 149.23V165.485H1.87695V130.364Z" fill="#002490" stroke="#002490" stroke-width="1.00801" stroke-miterlimit="10" stroke-linecap="round" stroke-linejoin="round"/>
<path d="M44.6302 149.708C43.8549 149.953 43.0538 150.238 42.2139 150.561C41.3869 150.884 40.5728 151.233 39.7717 151.633C38.9705 152.034 38.2211 152.46 37.4975 152.912C36.7739 153.378 36.1407 153.869 35.5851 154.398C35.0424 154.915 34.616 155.471 34.2929 156.052C33.9699 156.647 33.8148 157.254 33.8148 157.9C33.8148 158.559 33.9311 159.179 34.1766 159.774C34.4222 160.368 34.7452 160.898 35.1458 161.337C35.5463 161.79 36.0115 162.138 36.5542 162.397C37.084 162.655 37.6267 162.785 38.1953 162.785C38.8026 162.785 39.3711 162.707 39.9267 162.552C40.4695 162.397 40.9992 162.177 41.5161 161.906C42.033 161.635 42.5369 161.324 43.0538 160.963C43.5706 160.601 44.0875 160.213 44.6302 159.813V149.708ZM50.0185 165.485H44.6302V161.777C43.9841 162.268 43.3639 162.759 42.7566 163.263C42.1363 163.78 41.4773 164.232 40.7537 164.658C40.043 165.072 39.2548 165.421 38.3891 165.679C37.5233 165.937 36.5154 166.067 35.3783 166.067C34.3188 166.067 33.3626 165.899 32.4968 165.55C31.644 165.201 30.9075 164.736 30.3131 164.115C29.7058 163.521 29.2406 162.81 28.9176 161.983C28.5945 161.156 28.4395 160.265 28.4395 159.309C28.4395 158.146 28.672 157.099 29.1372 156.169C29.5895 155.238 30.2226 154.398 31.0238 153.662C31.8249 152.925 32.7553 152.266 33.8278 151.698C34.8873 151.129 36.0244 150.612 37.2132 150.16C38.402 149.708 39.6425 149.294 40.9088 148.946C42.1751 148.597 43.4156 148.261 44.6302 147.964V146.271C44.6302 145.043 44.501 144.009 44.2684 143.157C44.01 142.317 43.674 141.632 43.2088 141.102C42.7695 140.585 42.2139 140.211 41.5678 139.978C40.9217 139.758 40.1852 139.642 39.384 139.642C38.4795 139.642 37.7301 139.758 37.1615 139.991C36.593 140.236 36.1407 140.547 35.8177 140.934C35.4817 141.309 35.2621 141.761 35.1458 142.252C35.0295 142.743 34.9649 143.247 34.9649 143.751C34.9649 144.229 34.9261 144.681 34.8615 145.121C34.784 145.547 34.6418 145.935 34.448 146.258C34.2412 146.594 33.9699 146.852 33.621 147.059C33.2721 147.253 32.8328 147.356 32.2901 147.356C31.8766 147.356 31.4889 147.279 31.153 147.124C30.8041 146.956 30.5069 146.736 30.2485 146.452C30.003 146.167 29.8091 145.831 29.6799 145.444C29.5378 145.056 29.4732 144.63 29.4732 144.177C29.4732 143.286 29.7704 142.459 30.3518 141.684C30.9462 140.908 31.7345 140.249 32.7294 139.681C33.7115 139.112 34.8744 138.673 36.2053 138.337C37.5363 138.014 38.9318 137.846 40.3919 137.846C42.1751 137.846 43.674 138.027 44.9016 138.376C46.1291 138.712 47.1241 139.203 47.8735 139.823C48.6359 140.443 49.1786 141.193 49.5146 142.084C49.8505 142.976 50.0185 143.958 50.0185 145.043V165.485Z" fill="#002490" stroke="#002490" stroke-width="1.00801" stroke-miterlimit="10" stroke-linecap="round" stroke-linejoin="round"/>
<path d="M57.207 138.402H62.5824V143.48C63.2673 142.718 64.0426 142.007 64.9083 141.335C65.787 140.663 66.6656 140.056 67.5831 139.539C68.5005 139.022 69.4179 138.608 70.3483 138.311C71.2657 138.001 72.1444 137.846 72.9714 137.846C73.7854 137.846 74.5866 137.988 75.4006 138.285C76.2147 138.57 76.9771 138.97 77.6748 139.474C78.3726 139.991 78.967 140.598 79.4709 141.296C79.9878 141.994 80.3108 142.756 80.453 143.583C80.9052 142.782 81.5384 142.046 82.3137 141.348C83.089 140.65 83.9676 140.043 84.9238 139.526C85.88 139.022 86.8879 138.608 87.9475 138.311C89.0071 138.001 90.0537 137.846 91.0745 137.846C92.0953 137.846 93.0644 138.079 93.956 138.531C94.8605 138.983 95.6488 139.59 96.3207 140.366C96.9926 141.128 97.5224 142.033 97.91 143.053C98.2977 144.1 98.4915 145.186 98.4915 146.348V165.485H93.0903V147.137C93.0903 146.374 92.9611 145.651 92.7026 144.979C92.4313 144.294 92.0953 143.7 91.656 143.183C91.2167 142.679 90.6998 142.265 90.1183 141.968C89.5239 141.658 88.9037 141.516 88.2576 141.516C87.5082 141.516 86.7587 141.606 85.9963 141.813C85.234 142.02 84.4974 142.291 83.8126 142.64C83.1277 143.002 82.4946 143.415 81.926 143.88C81.3575 144.346 80.8923 144.85 80.5563 145.366V165.485H75.1939V147.137C75.1939 146.374 75.0647 145.651 74.7933 144.979C74.5349 144.294 74.186 143.7 73.7208 143.183C73.2686 142.679 72.7517 142.265 72.1702 141.968C71.5758 141.658 70.9556 141.516 70.2966 141.516C69.6118 141.516 68.9011 141.619 68.1645 141.826C67.4409 142.033 66.7173 142.317 66.0196 142.666C65.3218 143.028 64.6757 143.428 64.0813 143.893C63.4869 144.359 62.983 144.85 62.5824 145.366V165.485H57.207V138.402Z" fill="#002490" stroke="#002490" stroke-width="1.00801" stroke-miterlimit="10" stroke-linecap="round" stroke-linejoin="round"/>
<path d="M104.911 139.397L108.697 137.859H110.261V165.486H104.911V139.397ZM107.534 124.537C107.961 124.537 108.348 124.615 108.736 124.757C109.111 124.899 109.434 125.093 109.718 125.338C109.989 125.584 110.222 125.868 110.377 126.191C110.545 126.514 110.636 126.863 110.636 127.238C110.636 127.612 110.545 127.961 110.377 128.284C110.222 128.607 109.989 128.905 109.718 129.137C109.434 129.383 109.111 129.577 108.736 129.719C108.348 129.861 107.961 129.938 107.534 129.938C107.108 129.938 106.72 129.861 106.358 129.719C105.984 129.577 105.661 129.383 105.376 129.137C105.105 128.905 104.872 128.607 104.704 128.284C104.549 127.961 104.459 127.612 104.459 127.238C104.459 126.863 104.549 126.514 104.704 126.191C104.872 125.868 105.105 125.584 105.376 125.338C105.661 125.093 105.984 124.899 106.358 124.757C106.72 124.615 107.108 124.537 107.534 124.537Z" fill="#002490"/>
<path d="M104.911 139.397L108.697 137.859H110.261V165.485H104.911V139.397ZM107.534 124.537C107.961 124.537 108.348 124.614 108.736 124.757C109.111 124.899 109.434 125.092 109.718 125.338C109.989 125.583 110.222 125.868 110.377 126.191C110.545 126.514 110.636 126.863 110.636 127.237C110.636 127.612 110.545 127.961 110.377 128.284C110.222 128.607 109.989 128.904 109.718 129.137C109.434 129.382 109.111 129.576 108.736 129.718C108.348 129.861 107.961 129.938 107.534 129.938C107.108 129.938 106.72 129.861 106.358 129.718C105.984 129.576 105.661 129.382 105.376 129.137C105.105 128.904 104.872 128.607 104.704 128.284C104.549 127.961 104.459 127.612 104.459 127.237C104.459 126.863 104.549 126.514 104.704 126.191C104.872 125.868 105.105 125.583 105.376 125.338C105.661 125.092 105.984 124.899 106.358 124.757C106.72 124.614 107.108 124.537 107.534 124.537Z" stroke="#002490" stroke-width="1.00801" stroke-miterlimit="10" stroke-linecap="round" stroke-linejoin="round"/>
<path d="M116.814 138.402H122.164V143.532C122.681 142.769 123.249 142.046 123.857 141.361C124.464 140.676 125.084 140.056 125.743 139.539C126.402 139.022 127.074 138.608 127.772 138.311C128.47 138.001 129.18 137.846 129.904 137.846C130.498 137.846 131.041 137.937 131.545 138.117C132.049 138.298 132.488 138.531 132.863 138.815C133.251 139.125 133.548 139.461 133.755 139.862C133.974 140.249 134.091 140.676 134.091 141.102C134.091 141.981 133.819 142.64 133.264 143.079C132.721 143.532 131.959 143.751 130.989 143.751C130.382 143.751 129.891 143.687 129.542 143.57C129.167 143.441 128.844 143.299 128.56 143.131C128.263 142.976 127.953 142.834 127.656 142.705C127.358 142.575 126.971 142.511 126.531 142.511C126.17 142.511 125.821 142.627 125.446 142.834C125.097 143.041 124.735 143.338 124.361 143.712C124.012 144.1 123.637 144.539 123.275 145.056C122.901 145.56 122.539 146.116 122.164 146.723V165.485H116.814V138.402Z" fill="#002490" stroke="#002490" stroke-width="1.00801" stroke-miterlimit="10" stroke-linecap="round" stroke-linejoin="round"/>
<path d="M156.7 151.491H169.635L163.251 137.601L156.7 151.491ZM165.551 129.563L182.091 165.485H176.083L170.72 153.765H155.666L150.123 165.485H147.164L164.091 129.563H165.551Z" fill="#002490" stroke="#002490" stroke-width="1.00801" stroke-miterlimit="10" stroke-linecap="round" stroke-linejoin="round"/>
<path d="M204.577 144.992C204.577 144.243 204.422 143.597 204.099 143.041C203.789 142.498 203.414 142.02 202.975 141.607C202.716 141.374 202.406 141.154 202.032 140.948C201.644 140.728 201.243 140.547 200.817 140.392C200.391 140.224 199.938 140.095 199.473 140.004C199.008 139.914 198.582 139.875 198.155 139.875C196.992 139.875 195.894 140.147 194.873 140.715C193.852 141.271 192.961 142.033 192.198 143.002C191.423 143.958 190.829 145.083 190.389 146.362C189.95 147.654 189.73 149.024 189.73 150.484C189.73 152.086 189.937 153.572 190.363 154.968C190.777 156.35 191.345 157.565 192.069 158.599C192.78 159.645 193.62 160.472 194.589 161.067C195.558 161.661 196.592 161.958 197.703 161.958C198.504 161.958 199.279 161.855 200.016 161.648C200.765 161.428 201.437 161.17 202.032 160.847C202.639 160.524 203.156 160.162 203.595 159.774C204.034 159.387 204.37 159.012 204.577 158.65V144.992ZM204.577 161.247C204.047 161.842 203.466 162.423 202.833 162.992C202.2 163.56 201.502 164.077 200.727 164.53C199.951 164.982 199.098 165.357 198.142 165.641C197.199 165.925 196.114 166.067 194.925 166.067C193.439 166.067 192.03 165.731 190.712 165.072C189.407 164.413 188.257 163.496 187.275 162.333C186.293 161.183 185.518 159.826 184.949 158.276C184.394 156.725 184.109 155.071 184.109 153.314C184.109 151.169 184.497 149.166 185.272 147.292C186.048 145.419 187.094 143.777 188.425 142.382C189.756 140.974 191.307 139.875 193.103 139.061C194.886 138.26 196.798 137.859 198.84 137.859C199.421 137.859 200.016 137.911 200.61 138.014C201.205 138.131 201.76 138.273 202.277 138.441C202.794 138.622 203.246 138.841 203.647 139.087C204.06 139.332 204.37 139.604 204.577 139.875L208.647 137.859H209.953V176.908H204.577V161.247Z" fill="#002490" stroke="#002490" stroke-width="1.00801" stroke-miterlimit="10" stroke-linecap="round" stroke-linejoin="round"/>
<path d="M221.618 138.402V157.668C221.618 158.34 221.786 158.973 222.096 159.58C222.407 160.174 222.82 160.691 223.363 161.131C223.905 161.557 224.539 161.906 225.262 162.177C225.973 162.436 226.748 162.565 227.575 162.565C228.118 162.565 228.686 162.449 229.294 162.216C229.888 161.996 230.495 161.686 231.064 161.273C231.645 160.872 232.188 160.407 232.705 159.877C233.222 159.347 233.648 158.779 233.984 158.172V138.402H239.347V165.485H233.984V160.42C233.506 161.195 232.912 161.919 232.201 162.617C231.49 163.301 230.715 163.909 229.875 164.413C229.048 164.93 228.195 165.33 227.317 165.627C226.425 165.925 225.585 166.067 224.81 166.067C223.621 166.067 222.523 165.834 221.476 165.395C220.43 164.955 219.525 164.348 218.75 163.599C217.974 162.836 217.367 161.958 216.915 160.937C216.476 159.916 216.256 158.831 216.256 157.668V138.402H221.618Z" fill="#002490" stroke="#002490" stroke-width="1.00801" stroke-miterlimit="10" stroke-linecap="round" stroke-linejoin="round"/>
<path d="M260.202 149.708C259.427 149.953 258.626 150.238 257.799 150.561C256.959 150.884 256.145 151.233 255.344 151.633C254.556 152.034 253.793 152.46 253.07 152.912C252.346 153.378 251.713 153.869 251.17 154.398C250.615 154.915 250.188 155.471 249.865 156.052C249.542 156.647 249.387 157.254 249.387 157.9C249.387 158.559 249.503 159.179 249.749 159.774C249.994 160.368 250.317 160.898 250.718 161.337C251.132 161.79 251.597 162.138 252.126 162.397C252.656 162.655 253.199 162.785 253.78 162.785C254.375 162.785 254.956 162.707 255.499 162.552C256.042 162.397 256.572 162.177 257.088 161.906C257.605 161.635 258.109 161.324 258.626 160.963C259.143 160.601 259.673 160.213 260.202 159.813V149.708ZM265.604 165.485H260.202V161.777C259.569 162.268 258.936 162.759 258.329 163.263C257.709 163.78 257.05 164.232 256.326 164.658C255.615 165.072 254.827 165.421 253.961 165.679C253.096 165.937 252.088 166.067 250.951 166.067C249.891 166.067 248.935 165.899 248.082 165.55C247.216 165.201 246.493 164.736 245.885 164.115C245.278 163.521 244.813 162.81 244.503 161.983C244.18 161.156 244.012 160.265 244.012 159.309C244.012 158.146 244.244 157.099 244.709 156.169C245.175 155.238 245.795 154.398 246.596 153.662C247.397 152.925 248.328 152.266 249.4 151.698C250.473 151.129 251.597 150.612 252.785 150.16C253.987 149.708 255.215 149.294 256.481 148.946C257.76 148.597 258.988 148.261 260.202 147.964V146.271C260.202 145.043 260.086 144.009 259.841 143.157C259.595 142.317 259.246 141.632 258.794 141.102C258.342 140.585 257.786 140.211 257.14 139.978C256.494 139.758 255.757 139.642 254.956 139.642C254.052 139.642 253.315 139.758 252.734 139.991C252.165 140.236 251.726 140.547 251.39 140.934C251.067 141.309 250.847 141.761 250.718 142.252C250.602 142.743 250.55 143.247 250.55 143.751C250.55 144.229 250.511 144.681 250.434 145.121C250.356 145.547 250.214 145.935 250.02 146.258C249.814 146.594 249.542 146.852 249.193 147.059C248.857 147.253 248.418 147.356 247.875 147.356C247.449 147.356 247.074 147.279 246.725 147.124C246.376 146.956 246.079 146.736 245.834 146.452C245.575 146.167 245.381 145.831 245.252 145.444C245.11 145.056 245.045 144.63 245.045 144.177C245.045 143.286 245.343 142.459 245.937 141.684C246.519 140.908 247.307 140.249 248.302 139.681C249.297 139.112 250.46 138.673 251.778 138.337C253.109 138.014 254.504 137.846 255.964 137.846C257.747 137.846 259.259 138.027 260.487 138.376C261.701 138.712 262.696 139.203 263.459 139.823C264.208 140.443 264.764 141.193 265.1 142.084C265.423 142.976 265.604 143.958 265.604 145.043V165.485Z" fill="#002490" stroke="#002490" stroke-width="1.00801" stroke-miterlimit="10" stroke-linecap="round" stroke-linejoin="round"/>
<path d="M7.7692 147.253C8.4282 147.447 9.13889 147.615 9.90126 147.783C10.6636 147.951 11.4389 148.041 12.2401 148.041C13.5064 148.041 14.6176 147.847 15.5738 147.473C16.5171 147.098 17.3183 146.568 17.9385 145.909C18.5716 145.25 19.0368 144.475 19.3599 143.583C19.67 142.705 19.825 141.761 19.825 140.753C19.825 139.578 19.6183 138.505 19.2048 137.536C18.7913 136.567 18.2357 135.753 17.525 135.081C16.8143 134.409 15.9873 133.892 15.0311 133.517C14.0749 133.143 13.0541 132.962 11.9558 132.962H7.7692V147.253ZM1.87695 130.364H12.9895C14.8244 130.364 16.543 130.584 18.1452 131.036C19.7475 131.476 21.143 132.135 22.3318 132.988C23.5206 133.84 24.451 134.9 25.1487 136.14C25.8336 137.381 26.1695 138.802 26.1695 140.405C26.1695 141.994 25.8465 143.389 25.1875 144.565C24.5156 145.754 23.6498 146.736 22.5644 147.524C21.479 148.3 20.2385 148.881 18.8559 149.256C17.4604 149.643 16.0519 149.824 14.6306 149.824C14.0232 149.824 13.3772 149.811 12.7052 149.773C12.0462 149.747 11.3872 149.695 10.767 149.643C10.1468 149.579 9.57822 149.514 9.04844 149.45C8.51865 149.385 8.09224 149.308 7.7692 149.23V165.485H1.87695V130.364Z" fill="#2271D0"/>
<path d="M44.6302 149.708C43.8549 149.953 43.0538 150.238 42.2139 150.561C41.3869 150.884 40.5728 151.233 39.7717 151.633C38.9705 152.034 38.2211 152.46 37.4975 152.912C36.7739 153.378 36.1407 153.869 35.5851 154.398C35.0424 154.915 34.616 155.471 34.2929 156.052C33.9699 156.647 33.8148 157.254 33.8148 157.9C33.8148 158.559 33.9311 159.179 34.1766 159.774C34.4222 160.368 34.7452 160.898 35.1458 161.337C35.5463 161.79 36.0115 162.138 36.5542 162.397C37.084 162.655 37.6267 162.785 38.1953 162.785C38.8026 162.785 39.3711 162.707 39.9267 162.552C40.4695 162.397 40.9992 162.177 41.5161 161.906C42.033 161.635 42.5369 161.324 43.0538 160.963C43.5706 160.601 44.0875 160.213 44.6302 159.813V149.708ZM50.0185 165.485H44.6302V161.777C43.9841 162.268 43.3639 162.759 42.7566 163.263C42.1363 163.78 41.4773 164.232 40.7537 164.658C40.043 165.072 39.2548 165.421 38.3891 165.679C37.5233 165.937 36.5154 166.067 35.3783 166.067C34.3188 166.067 33.3626 165.899 32.4968 165.55C31.644 165.201 30.9075 164.736 30.3131 164.115C29.7058 163.521 29.2406 162.81 28.9176 161.983C28.5945 161.156 28.4395 160.265 28.4395 159.309C28.4395 158.146 28.672 157.099 29.1372 156.169C29.5895 155.238 30.2226 154.398 31.0238 153.662C31.8249 152.925 32.7553 152.266 33.8278 151.698C34.8873 151.129 36.0244 150.612 37.2132 150.16C38.402 149.708 39.6425 149.294 40.9088 148.946C42.1751 148.597 43.4156 148.261 44.6302 147.964V146.271C44.6302 145.043 44.501 144.009 44.2684 143.157C44.01 142.317 43.674 141.632 43.2088 141.102C42.7695 140.585 42.2139 140.211 41.5678 139.978C40.9217 139.758 40.1852 139.642 39.384 139.642C38.4795 139.642 37.7301 139.758 37.1615 139.991C36.593 140.236 36.1407 140.547 35.8177 140.934C35.4817 141.309 35.2621 141.761 35.1458 142.252C35.0295 142.743 34.9649 143.247 34.9649 143.751C34.9649 144.229 34.9261 144.681 34.8615 145.121C34.784 145.547 34.6418 145.935 34.448 146.258C34.2412 146.594 33.9699 146.852 33.621 147.059C33.2721 147.253 32.8328 147.356 32.2901 147.356C31.8766 147.356 31.4889 147.279 31.153 147.124C30.8041 146.956 30.5069 146.736 30.2485 146.452C30.003 146.167 29.8091 145.831 29.6799 145.444C29.5378 145.056 29.4732 144.63 29.4732 144.177C29.4732 143.286 29.7704 142.459 30.3518 141.684C30.9462 140.908 31.7345 140.249 32.7294 139.681C33.7115 139.112 34.8744 138.673 36.2053 138.337C37.5363 138.014 38.9318 137.846 40.3919 137.846C42.1751 137.846 43.674 138.027 44.9016 138.376C46.1291 138.712 47.1241 139.203 47.8735 139.823C48.6359 140.443 49.1786 141.193 49.5146 142.084C49.8505 142.976 50.0185 143.958 50.0185 145.043V165.485Z" fill="#2271D0"/>
<path d="M57.207 138.402H62.5824V143.48C63.2673 142.718 64.0426 142.007 64.9083 141.335C65.787 140.663 66.6656 140.056 67.5831 139.539C68.5005 139.022 69.4179 138.608 70.3483 138.311C71.2657 138.001 72.1444 137.846 72.9714 137.846C73.7854 137.846 74.5866 137.988 75.4006 138.285C76.2147 138.57 76.9771 138.97 77.6748 139.474C78.3726 139.991 78.967 140.598 79.4709 141.296C79.9878 141.994 80.3108 142.756 80.453 143.583C80.9052 142.782 81.5384 142.046 82.3137 141.348C83.089 140.65 83.9676 140.043 84.9238 139.526C85.88 139.022 86.8879 138.608 87.9475 138.311C89.0071 138.001 90.0537 137.846 91.0745 137.846C92.0953 137.846 93.0644 138.079 93.956 138.531C94.8605 138.983 95.6488 139.59 96.3207 140.366C96.9926 141.128 97.5224 142.033 97.91 143.053C98.2977 144.1 98.4915 145.186 98.4915 146.348V165.485H93.0903V147.137C93.0903 146.374 92.9611 145.651 92.7026 144.979C92.4313 144.294 92.0953 143.7 91.656 143.183C91.2167 142.679 90.6998 142.265 90.1183 141.968C89.5239 141.658 88.9037 141.516 88.2576 141.516C87.5082 141.516 86.7587 141.606 85.9963 141.813C85.234 142.02 84.4974 142.291 83.8126 142.64C83.1277 143.002 82.4946 143.415 81.926 143.88C81.3575 144.346 80.8923 144.85 80.5563 145.366V165.485H75.1939V147.137C75.1939 146.374 75.0647 145.651 74.7933 144.979C74.5349 144.294 74.186 143.7 73.7208 143.183C73.2686 142.679 72.7517 142.265 72.1702 141.968C71.5758 141.658 70.9556 141.516 70.2966 141.516C69.6118 141.516 68.9011 141.619 68.1645 141.826C67.4409 142.033 66.7173 142.317 66.0196 142.666C65.3218 143.028 64.6757 143.428 64.0813 143.893C63.4869 144.359 62.983 144.85 62.5824 145.366V165.485H57.207V138.402Z" fill="#2271D0"/>
<path d="M104.911 139.397L108.697 137.859H110.261V165.486H104.911V139.397ZM107.534 124.537C107.961 124.537 108.348 124.615 108.736 124.757C109.111 124.899 109.434 125.093 109.718 125.338C109.989 125.584 110.222 125.868 110.377 126.191C110.545 126.514 110.636 126.863 110.636 127.238C110.636 127.612 110.545 127.961 110.377 128.284C110.222 128.607 109.989 128.905 109.718 129.137C109.434 129.383 109.111 129.577 108.736 129.719C108.348 129.861 107.961 129.938 107.534 129.938C107.108 129.938 106.72 129.861 106.358 129.719C105.984 129.577 105.661 129.383 105.376 129.137C105.105 128.905 104.872 128.607 104.704 128.284C104.549 127.961 104.459 127.612 104.459 127.238C104.459 126.863 104.549 126.514 104.704 126.191C104.872 125.868 105.105 125.584 105.376 125.338C105.661 125.093 105.984 124.899 106.358 124.757C106.72 124.615 107.108 124.537 107.534 124.537Z" fill="white"/>
<path d="M104.911 139.397L108.697 137.859H110.261V165.485H104.911V139.397ZM107.534 124.537C107.961 124.537 108.348 124.614 108.736 124.757C109.111 124.899 109.434 125.092 109.718 125.338C109.989 125.583 110.222 125.868 110.377 126.191C110.545 126.514 110.636 126.863 110.636 127.237C110.636 127.612 110.545 127.961 110.377 128.284C110.222 128.607 109.989 128.904 109.718 129.137C109.434 129.382 109.111 129.576 108.736 129.718C108.348 129.861 107.961 129.938 107.534 129.938C107.108 129.938 106.72 129.861 106.358 129.718C105.984 129.576 105.661 129.382 105.376 129.137C105.105 128.904 104.872 128.607 104.704 128.284C104.549 127.961 104.459 127.612 104.459 127.237C104.459 126.863 104.549 126.514 104.704 126.191C104.872 125.868 105.105 125.583 105.376 125.338C105.661 125.092 105.984 124.899 106.358 124.757C106.72 124.614 107.108 124.537 107.534 124.537Z" fill="#2271D0"/>
<path d="M116.814 138.402H122.164V143.532C122.681 142.769 123.249 142.046 123.857 141.361C124.464 140.676 125.084 140.056 125.743 139.539C126.402 139.022 127.074 138.608 127.772 138.311C128.47 138.001 129.18 137.846 129.904 137.846C130.498 137.846 131.041 137.937 131.545 138.117C132.049 138.298 132.488 138.531 132.863 138.815C133.251 139.125 133.548 139.461 133.755 139.862C133.974 140.249 134.091 140.676 134.091 141.102C134.091 141.981 133.819 142.64 133.264 143.079C132.721 143.532 131.959 143.751 130.989 143.751C130.382 143.751 129.891 143.687 129.542 143.57C129.167 143.441 128.844 143.299 128.56 143.131C128.263 142.976 127.953 142.834 127.656 142.705C127.358 142.575 126.971 142.511 126.531 142.511C126.17 142.511 125.821 142.627 125.446 142.834C125.097 143.041 124.735 143.338 124.361 143.712C124.012 144.1 123.637 144.539 123.275 145.056C122.901 145.56 122.539 146.116 122.164 146.723V165.485H116.814V138.402Z" fill="#2271D0"/>
<path d="M156.7 151.491H169.635L163.251 137.601L156.7 151.491ZM165.551 129.563L182.091 165.485H176.083L170.72 153.765H155.666L150.123 165.485H147.164L164.091 129.563H165.551Z" fill="#2271D0"/>
<path d="M204.577 144.992C204.577 144.243 204.422 143.597 204.099 143.041C203.789 142.498 203.414 142.02 202.975 141.607C202.716 141.374 202.406 141.154 202.032 140.948C201.644 140.728 201.243 140.547 200.817 140.392C200.391 140.224 199.938 140.095 199.473 140.004C199.008 139.914 198.582 139.875 198.155 139.875C196.992 139.875 195.894 140.147 194.873 140.715C193.852 141.271 192.961 142.033 192.198 143.002C191.423 143.958 190.829 145.083 190.389 146.362C189.95 147.654 189.73 149.024 189.73 150.484C189.73 152.086 189.937 153.572 190.363 154.968C190.777 156.35 191.345 157.565 192.069 158.599C192.78 159.645 193.62 160.472 194.589 161.067C195.558 161.661 196.592 161.958 197.703 161.958C198.504 161.958 199.279 161.855 200.016 161.648C200.765 161.428 201.437 161.17 202.032 160.847C202.639 160.524 203.156 160.162 203.595 159.774C204.034 159.387 204.37 159.012 204.577 158.65V144.992ZM204.577 161.247C204.047 161.842 203.466 162.423 202.833 162.992C202.2 163.56 201.502 164.077 200.727 164.53C199.951 164.982 199.098 165.357 198.142 165.641C197.199 165.925 196.114 166.067 194.925 166.067C193.439 166.067 192.03 165.731 190.712 165.072C189.407 164.413 188.257 163.496 187.275 162.333C186.293 161.183 185.518 159.826 184.949 158.276C184.394 156.725 184.109 155.071 184.109 153.314C184.109 151.169 184.497 149.166 185.272 147.292C186.048 145.419 187.094 143.777 188.425 142.382C189.756 140.974 191.307 139.875 193.103 139.061C194.886 138.26 196.798 137.859 198.84 137.859C199.421 137.859 200.016 137.911 200.61 138.014C201.205 138.131 201.76 138.273 202.277 138.441C202.794 138.622 203.246 138.841 203.647 139.087C204.06 139.332 204.37 139.604 204.577 139.875L208.647 137.859H209.953V176.908H204.577V161.247Z" fill="#2271D0"/>
<path d="M221.618 138.402V157.668C221.618 158.34 221.786 158.973 222.096 159.58C222.407 160.174 222.82 160.691 223.363 161.131C223.905 161.557 224.539 161.906 225.262 162.177C225.973 162.436 226.748 162.565 227.575 162.565C228.118 162.565 228.686 162.449 229.294 162.216C229.888 161.996 230.495 161.686 231.064 161.273C231.645 160.872 232.188 160.407 232.705 159.877C233.222 159.347 233.648 158.779 233.984 158.172V138.402H239.347V165.485H233.984V160.42C233.506 161.195 232.912 161.919 232.201 162.617C231.49 163.301 230.715 163.909 229.875 164.413C229.048 164.93 228.195 165.33 227.317 165.627C226.425 165.925 225.585 166.067 224.81 166.067C223.621 166.067 222.523 165.834 221.476 165.395C220.43 164.955 219.525 164.348 218.75 163.599C217.974 162.836 217.367 161.958 216.915 160.937C216.476 159.916 216.256 158.831 216.256 157.668V138.402H221.618Z" fill="#2271D0"/>
<path d="M260.202 149.708C259.427 149.953 258.626 150.238 257.799 150.561C256.959 150.884 256.145 151.233 255.344 151.633C254.556 152.034 253.793 152.46 253.07 152.912C252.346 153.378 251.713 153.869 251.17 154.398C250.615 154.915 250.188 155.471 249.865 156.052C249.542 156.647 249.387 157.254 249.387 157.9C249.387 158.559 249.503 159.179 249.749 159.774C249.994 160.368 250.317 160.898 250.718 161.337C251.132 161.79 251.597 162.138 252.126 162.397C252.656 162.655 253.199 162.785 253.78 162.785C254.375 162.785 254.956 162.707 255.499 162.552C256.042 162.397 256.572 162.177 257.088 161.906C257.605 161.635 258.109 161.324 258.626 160.963C259.143 160.601 259.673 160.213 260.202 159.813V149.708ZM265.604 165.485H260.202V161.777C259.569 162.268 258.936 162.759 258.329 163.263C257.709 163.78 257.05 164.232 256.326 164.658C255.615 165.072 254.827 165.421 253.961 165.679C253.096 165.937 252.088 166.067 250.951 166.067C249.891 166.067 248.935 165.899 248.082 165.55C247.216 165.201 246.493 164.736 245.885 164.115C245.278 163.521 244.813 162.81 244.503 161.983C244.18 161.156 244.012 160.265 244.012 159.309C244.012 158.146 244.244 157.099 244.709 156.169C245.175 155.238 245.795 154.398 246.596 153.662C247.397 152.925 248.328 152.266 249.4 151.698C250.473 151.129 251.597 150.612 252.785 150.16C253.987 149.708 255.215 149.294 256.481 148.946C257.76 148.597 258.988 148.261 260.202 147.964V146.271C260.202 145.043 260.086 144.009 259.841 143.157C259.595 142.317 259.246 141.632 258.794 141.102C258.342 140.585 257.786 140.211 257.14 139.978C256.494 139.758 255.757 139.642 254.956 139.642C254.052 139.642 253.315 139.758 252.734 139.991C252.165 140.236 251.726 140.547 251.39 140.934C251.067 141.309 250.847 141.761 250.718 142.252C250.602 142.743 250.55 143.247 250.55 143.751C250.55 144.229 250.511 144.681 250.434 145.121C250.356 145.547 250.214 145.935 250.02 146.258C249.814 146.594 249.542 146.852 249.193 147.059C248.857 147.253 248.418 147.356 247.875 147.356C247.449 147.356 247.074 147.279 246.725 147.124C246.376 146.956 246.079 146.736 245.834 146.452C245.575 146.167 245.381 145.831 245.252 145.444C245.11 145.056 245.045 144.63 245.045 144.177C245.045 143.286 245.343 142.459 245.937 141.684C246.519 140.908 247.307 140.249 248.302 139.681C249.297 139.112 250.46 138.673 251.778 138.337C253.109 138.014 254.504 137.846 255.964 137.846C257.747 137.846 259.259 138.027 260.487 138.376C261.701 138.712 262.696 139.203 263.459 139.823C264.208 140.443 264.764 141.193 265.1 142.084C265.423 142.976 265.604 143.958 265.604 145.043V165.485Z" fill="#2271D0"/>
<path d="M155.339 13.5222L133.385 0.910706L108.808 15.3054L86.9062 27.9298V82.0195L111.535 96.285L133.385 83.6606H133.398L111.535 96.285L133.385 109.039L158.66 94.5147L180.575 82.1617V53.437L168.222 46.0975V46.0846L180.575 53.437V28.059L155.339 13.5222Z" fill="white" stroke="white" stroke-width="1.21004" stroke-miterlimit="22.926" stroke-linecap="round" stroke-linejoin="round"/>
<path fill-rule="evenodd" clip-rule="evenodd" d="M106.652 61.2803V84.0869H124.316C133.723 83.2858 135.881 77.9104 130.738 75.1064C127.12 73.1423 122.856 70.2608 124.058 68.5681C126.435 65.2472 138.75 64.6141 150.069 66.268C146.968 66.7332 135.571 66.2422 134.925 69.8732C134.266 73.5041 148.48 76.6699 153.687 84.0869H160.794V61.2803C148.932 54.8066 151.93 54.1605 147.769 50.4649C146.8 49.6121 145.947 50.6588 144.719 49.5346C140.83 45.9941 133.982 39.2102 132.999 39.4557C131.552 39.4557 125.802 46.2654 121.706 49.0823C119.716 50.4391 118.928 49.8318 117.558 51.0076C115.956 52.5195 115.581 54.3414 113.979 55.8403C111.95 57.7656 109.624 58.1016 106.652 61.2803Z" fill="#80D6F7" stroke="white" stroke-width="0.120932" stroke-miterlimit="10" stroke-linecap="round" stroke-linejoin="round"/>
<path fill-rule="evenodd" clip-rule="evenodd" d="M142.589 50.375C137.485 45.2709 133.97 42.3636 133.97 42.3636C132.846 41.136 132.872 41.6012 132.045 42.3636C128.091 46.4468 124.757 49.5867 122.018 51.7963L130.236 46.8215C130.804 47.3513 131.269 47.8165 131.618 48.2041C133.014 46.6665 133.725 45.9041 133.725 45.9041C138.997 48.6435 142.589 50.375 142.589 50.375Z" fill="white"/>
<path fill-rule="evenodd" clip-rule="evenodd" d="M109.221 62.8831C109.918 61.9528 112.606 60.9578 115.216 59.3555C120.63 56.0476 131.575 50.22 131.575 50.22L126.91 54.1869L131.575 51.7964L129.004 56.8229L123.77 60.2213L122.013 60.6865L122.698 57.8954L109.221 62.8831Z" fill="white"/>
<path fill-rule="evenodd" clip-rule="evenodd" d="M152.798 84.0864C151.286 82.4066 148.508 80.197 146.647 79.034C143.339 76.9795 138.145 74.925 135.406 72.4957C134.617 71.785 133.92 70.8547 134.126 69.7176C134.643 66.849 138.92 66.5776 141.194 66.2287C138.442 66.1512 135.599 66.1771 132.86 66.4484C131.387 66.5905 125.017 67.508 124.668 69.149C124.435 70.2732 128.544 72.8834 129.358 73.3744C131.439 74.6407 134.243 75.7778 134.268 78.6852C134.281 80.4813 133.041 81.8768 131.62 82.7942C131.361 82.9622 129.862 83.7117 128.583 84.0864H152.798Z" fill="#006ACC"/>
<path d="M133.387 0.910889L155.34 13.5224L108.797 40.7481L108.81 15.3055L133.387 0.910889Z" fill="#006ACC"/>
<path d="M180.574 28.0592L155.338 13.5225L134.25 25.8755L180.574 53.4373V28.0592Z" fill="#8FADE7"/>
<path d="M180.574 82.162V53.4373L158.646 40.4124V94.5021L180.574 82.162Z" fill="#4D84D7"/>
<path d="M111.535 96.2856L158.647 69.0598V94.5153L133.386 109.039L111.535 96.2856Z" fill="#2271D0"/>
<path d="M86.9062 82.0198L111.535 96.2853L133.398 83.6609L86.9062 56.5772V81.7485V27.9171V56.5772L108.808 69.4084V15.3057L86.9062 27.9171" fill="#7BA0E2"/>
</svg>
