<?xml version="1.0" encoding="UTF-8"?> <svg xmlns="http://www.w3.org/2000/svg" width="234" height="179" viewBox="0 0 234 179" fill="none"> <g clip-path="url(#clip0_663_1354)"> <path d="M116.5 125.7C160.2 125.7 199.2 131.5 224.5 140.6C203.1 128.7 162.8 120.7 116.5 120.7C70.3 120.7 29.9 128.7 8.5 140.6C33.8 131.5 72.7 125.7 116.5 125.7Z" fill="#FFED00"></path> <path d="M116.5 66C160.2 66 199.2 71.8 224.5 80.9C203 69 162.7 61 116.5 61C70.3 61 29.9 69 8.5 80.9C33.8 71.8 72.7 66 116.5 66Z" fill="#FFED00"></path> <path d="M116.499 55.1999C147.999 55.1999 176.099 59.4999 194.299 66.1999C178.899 57.3999 149.799 51.3999 116.499 51.3999C83.1992 51.3999 54.0992 57.3999 38.6992 66.1999C56.8992 59.4999 84.9992 55.1999 116.499 55.1999Z" fill="#FFED00"></path> <path d="M60.4992 118.6C59.7992 118.8 58.4992 119.1 57.1992 119.4C55.8992 119.7 54.5992 120 53.8992 120.2C52.7992 120.5 51.3992 120.9 50.0992 121.4C48.6992 121.8 47.4992 122.3 46.3992 122.6C45.6992 122.8 45.4992 122.7 45.2992 121.9C44.9992 120.8 45.3992 120.6 46.7992 120.2C47.9992 119.9 48.5992 119.7 48.7992 119C49.1992 118 48.3992 114.1 47.6992 111.5C46.4992 106.9 43.3992 97.5002 42.8992 95.6002C42.7992 95.3002 41.7992 92.1002 41.2992 90.2002C41.1992 90.0002 41.0992 89.6002 40.9992 89.4002C40.9992 89.3002 40.9992 89.2002 40.9992 89.1002C40.9992 89.0002 40.8992 88.8002 40.6992 88.9002C40.5992 88.9002 40.5992 89.1002 40.6992 89.3002C40.7992 89.5002 40.4992 90.0002 40.3992 90.5002C40.2992 91.3002 39.4992 96.5002 39.0992 99.7002C38.0992 107.1 35.8992 120.6 35.6992 123C35.5992 125 35.4992 125.7 34.7992 125.9C32.3992 126.6 33.1992 125.7 30.2992 122.3C30.1992 122.2 29.9992 121.6 29.7992 121.6C29.3992 121.3 28.9992 120.5 28.7992 120.2C26.4992 116.8 24.8992 114.8 22.7992 112C16.0992 103.6 13.0992 100.1 11.3992 98.3002C11.0992 97.9002 10.7992 97.4002 10.4992 97.5002C10.2992 97.6002 11.1992 101.1 11.3992 101.8C11.5992 102.6 11.5992 103.5 11.7992 104.3C12.8992 108.5 17.5992 125.6 18.1992 127C18.3992 127.6 18.9992 128.1 20.1992 127.7C21.6992 127.3 22.0992 127 22.4992 126.8C22.7992 126.7 22.9992 127.4 23.1992 128C23.3992 128.9 23.2992 129 22.6992 129.2C21.7992 129.4 20.2992 129.8 18.9992 130.1C17.6992 130.4 16.5992 130.6 16.2992 130.7C14.3992 131.2 12.6992 131.8 11.2992 132.2C9.89923 132.7 8.89923 133 8.59923 133.1C8.49923 133.1 8.19923 133.1 7.89923 132.1C7.79923 131.5 7.89923 131 8.39923 130.8C9.19923 130.6 10.8992 130.1 11.1992 129.4C11.4992 128.5 11.2992 123.4 9.99923 113.7C9.99923 113.3 10.1992 112.9 9.99923 112.5C9.49923 110.7 9.89923 110.8 9.59923 109.8C9.59923 109.7 9.59923 108.4 9.29923 106.5C8.79923 104.4 7.89923 97.4002 7.19923 94.9002C6.89923 93.7002 5.29923 92.1002 3.39923 92.6002C2.79923 92.8002 1.39923 93.3002 0.799233 93.5002C0.499233 93.6002 0.399234 93.5002 0.399234 93.3002C0.299234 93.1002 -0.200766 91.0002 0.499234 90.9002C0.699234 90.8002 1.99923 90.6002 3.39923 90.3002C4.79923 90.0002 6.29923 89.7002 6.79923 89.6002C8.19923 89.2002 10.8992 88.1002 12.2992 87.7002C13.6992 87.3002 13.2992 87.4002 14.4992 89.4002C16.2992 92.7002 21.5992 100.1 23.9992 103.2C24.6992 104.1 24.7992 104.9 26.2992 106.2C27.3992 107.2 32.4992 114.5 34.1992 116C34.5992 115.2 35.0992 108.7 36.3992 102.7C36.7992 101.2 37.1992 94.7002 37.4992 92.5002C38.8992 83.6002 37.4992 80.6002 38.6992 80.3002C39.6992 80.0002 41.6992 79.9002 43.8992 79.3002C45.4992 78.8002 48.4992 77.6002 48.9992 77.5002C49.7992 77.3002 49.8992 77.7002 50.0992 78.5002C50.1992 78.8002 50.2992 79.3002 49.7992 79.5002C48.9992 79.7002 47.1992 80.1002 46.4992 80.3002C46.1992 80.4002 46.1992 80.8002 46.2992 81.3002C46.4992 82.0002 46.9992 86.6002 47.1992 87.5002C47.6992 89.3002 48.7992 95.1002 49.1992 96.9002C49.2992 97.2002 49.4992 97.4002 49.5992 97.7002C49.6992 97.9002 49.6992 98.3002 49.7992 98.6002C49.7992 98.7002 49.8992 98.7002 49.8992 98.8002C49.9992 99.0002 49.8992 99.1002 49.9992 99.3002C50.2992 100.3 50.8992 102.2 51.0992 102.9C51.8992 106 55.1992 115.6 56.2992 117C56.7992 117.6 58.0992 117.3 59.5992 116.8C60.4992 116.6 60.7992 116.6 60.9992 117.5C60.9992 117.6 61.1992 118.4 60.4992 118.6Z" fill="#FFED00"></path> <path d="M76.2994 115.7C75.8994 115.8 74.7994 115.9 73.2994 116.1C71.6994 116.3 69.7994 116.6 67.6994 117C65.6994 117.4 63.8994 117.8 62.2994 118.1C60.7994 118.4 59.6994 118.7 58.9994 118.8C58.6994 118.9 58.3994 118.5 58.1994 117.6C58.0994 117.2 58.3994 116.5 58.7994 116.4C59.7994 116.2 60.8994 116.2 62.6994 115.8C63.3994 115.7 63.8994 115 63.8994 114.6C63.6994 113.7 64.5994 110.2 62.2994 97.2C62.1994 96.9 61.7994 96.6 61.7994 96.2C61.6994 95.5 61.9994 95.2 61.8994 94.6C61.6994 93.5 60.2994 88.9 60.0994 87.5C59.7994 85.6 58.1994 78.8 57.4994 78.4C56.8994 78.1 54.7994 78.5 53.1994 78.8C52.3994 79 51.8994 79 51.7994 78.4C51.6994 77.8 51.4994 76.5 52.0994 76.4C52.2994 76.4 52.6994 76.4 53.7994 76.2C54.9994 76.1 57.0994 75.8 60.4994 75.2C62.2994 74.9 63.9994 74.5 65.3994 74.1C66.8994 73.8 68.0994 73.5 68.8994 73.3C69.7994 73.1 69.7994 73.3 70.0994 74.6C70.2994 76 67.9994 75.2 65.3994 76.8C64.5994 77.4 65.2994 81.7 65.7994 84.7C66.0994 86.5 65.9994 88.6 67.4994 96.9C69.0994 106.3 71.2994 114.4 72.2994 114.2C72.9994 114.1 74.8994 113.5 75.4994 113.4C76.7994 113.2 76.8994 113.4 77.0994 114.4C77.3994 115.2 77.2994 115.5 76.2994 115.7Z" fill="#FFED00"></path> <path d="M115.499 111.9C111.699 112.2 110.399 112.7 109.499 112.7C108.599 112.8 104.699 108.8 96.9992 102C94.0992 99.4001 89.9992 95.0001 88.9992 95.1001C88.6992 95.1001 87.5992 93.5001 87.1992 93.5001C86.9992 93.5001 84.2992 95.8001 84.3992 96.1001L84.5992 98.8001C84.6992 99.8001 85.8992 113 87.2992 112.9C88.8992 112.8 89.6992 112.5 90.5992 112.5C90.9992 112.5 91.0992 113.1 91.0992 113.8C91.0992 113.9 91.1992 114.4 90.5992 114.4C90.4992 114.4 88.8992 114.5 86.9992 114.6C85.1992 114.7 82.9992 114.8 81.8992 114.9C80.9992 115 79.6992 115.2 78.2992 115.4C76.9992 115.6 75.5992 115.8 74.6992 115.9C73.9992 116 73.7992 115.7 73.6992 115C73.6992 114.6 73.5992 113.8 74.0992 113.7C75.1992 113.6 77.7992 113.3 78.1992 112.9C78.7992 112.3 79.1992 102.9 78.5992 96.1001C78.4992 94.6001 77.9992 88.7001 77.5992 86.3001C77.4992 84.7001 76.5992 82.5001 76.2992 79.8001C76.0992 77.6001 75.5992 76.1001 75.1992 75.7001C74.1992 74.5001 70.2992 75.8001 70.1992 74.6001C70.0992 73.1001 70.7992 73.0001 70.9992 73.0001C71.2992 73.0001 72.3992 72.9001 73.7992 72.9001C75.1992 72.9001 76.7992 72.8001 78.1992 72.7001C81.7992 72.4001 83.8992 72.1001 84.9992 71.9001C86.2992 71.7001 86.7992 71.6001 87.2992 71.5001C87.6992 71.5001 87.9992 71.7001 87.9992 72.7001C88.0992 73.9001 84.4992 73.7001 83.6992 74.3001C83.2992 74.6001 83.0992 75.5001 83.0992 76.0001C83.1992 77.4001 83.0992 83.4001 83.0992 84.1001C83.1992 84.8001 82.9992 84.7001 82.9992 85.1001C83.1992 87.3001 83.2992 90.0001 83.3992 90.9001C83.3992 91.1001 83.6992 92.2001 83.7992 93.1001C84.7992 92.6001 90.1992 88.5001 94.4992 84.0001C97.2992 81.2001 99.3992 78.2001 99.3992 78.1001C100.199 77.2001 102.399 74.0001 102.299 73.3001C102.199 72.5001 101.999 72.2001 96.7992 72.6001C95.2992 72.7001 95.0992 72.7001 95.0992 72.2001C94.9992 71.5001 94.9992 70.6001 95.7992 70.5001C95.9992 70.5001 97.5992 70.4001 99.5992 70.3001C101.499 70.3001 103.799 70.1001 104.999 70.0001C105.999 69.9001 107.299 69.7001 108.399 69.5001C109.599 69.3001 110.599 69.2001 111.199 69.1001C111.499 69.1001 111.599 69.3001 111.699 69.9001C111.799 71.0001 108.899 73.3001 108.499 73.8001C107.399 75.1001 103.599 78.5001 101.399 80.6001C98.5992 83.3001 94.5992 87.6001 92.9992 88.9001C93.0992 89.8001 101.199 97.4001 101.599 97.4001C102.099 97.4001 106.999 101.8 111.599 105.5C116.699 109.6 118.899 110.8 118.899 111.1C118.899 111.5 118.899 111.6 118.499 111.6L115.499 111.9Z" fill="#FFED00"></path> <path d="M136.6 94.3998C135 94.2998 131.3 94.0998 130.4 94.0998C127 93.7998 126.5 93.7998 126.6 93.0998C126.7 91.5998 133 78.7998 133.2 78.7998C133.8 78.8998 134.3 80.8998 134.6 81.6998C135.5 84.0998 135.2 85.1998 135.6 86.3998C136 87.9998 136.8 90.1998 136.7 90.7998C136.6 91.5998 137.7 92.0998 137.5 94.3998C137.5 94.5998 137.3 94.6998 137 94.5998C136.9 94.5998 136.7 94.3998 136.6 94.3998ZM153.1 115C153.2 114.3 151.2 114.6 150.3 113.8C149.6 113.2 145 100.5 143.2 92.3998C139.4 75.5998 140.9 72.2998 139.4 72.1998C138.8 72.0998 138.1 72.1998 137.4 72.1998C136.8 72.2998 136 72.2998 135.1 72.1998C133.2 71.9998 131.8 71.7998 130.7 71.5998C129.7 71.3998 129.1 71.2998 128.7 71.2998C128.1 71.2998 127.9 72.1998 127.8 72.8998C127.8 73.1998 127.8 73.5998 128.1 73.5998C128.6 73.5998 129.5 73.5998 130.2 73.5998C131.2 73.6998 131.7 74.2998 131.7 74.8998C131.5 77.2998 126.8 85.5998 123.7 91.1998C121.1 95.9998 117.1 102.6 115.6 105.3C114.5 107.2 112.8 111 110.9 110.8C110.4 110.8 109.7 110.5 109.4 110.5C108.6 110.4 108.5 110.9 108.5 111.3C108.4 112.2 108.8 112.6 109.4 112.7C109.6 112.7 110.5 112.7 111.5 112.7C112.6 112.7 113.8 112.8 114.6 112.8C117.8 113.1 119.8 113.3 121.1 113.5C122.4 113.7 123.1 113.8 123.3 113.8C123.9 113.9 124.1 113.6 124.2 112.4C124.3 111.2 120.1 111.6 120.2 110.4C120.4 108.4 124.3 97.4998 124.8 97.1998C125.3 96.7998 129.8 97.0998 130.4 97.0998C131.7 97.1998 132.4 97.0998 133 97.0998C134.8 97.2998 136.7 97.4998 137.9 97.5998C138.6 97.6998 140.9 107.9 141.2 108.9C141.9 111.3 142.3 115.5 142.9 115.6C144.3 115.6 145.9 115.6 147 115.7C147.5 115.7 148.3 115.9 149.3 116.1C150.3 116.3 151.4 116.4 152.5 116.5C152.8 116.5 153 115.5 153.1 115Z" fill="#FFED00"></path> <path d="M166.099 116.4C162.399 115.7 157.999 113.8 155.899 112C155.899 109.2 156.799 104.1 157.599 99.5998C158.299 95.2998 160.999 83.2998 161.099 82.8998C161.199 82.2998 161.199 81.6998 161.299 81.0998C161.399 80.6998 161.999 78.5998 162.499 78.2998C162.999 77.9998 165.799 78.2998 167.199 78.5998C170.899 79.2998 175.499 82.3998 177.199 84.1998C180.799 87.0998 183.899 94.4998 182.899 100.4C181.899 106.1 180.499 109.5 178.299 112.2C176.399 114.4 173.199 117.6 166.099 116.4ZM170.799 119.2C175.699 118.6 182.199 114.9 184.999 111.9C186.799 110 189.699 105 190.799 98.7998C190.999 97.5998 191.699 90.4998 189.099 86.2998C184.799 79.4998 178.499 77.6998 170.599 76.1998C166.599 75.6998 162.399 75.3998 158.899 74.7998C157.699 74.5998 155.999 74.1998 154.599 73.7998C152.999 73.3998 151.799 73.0998 151.099 72.9998C149.499 72.6998 149.399 73.0998 149.299 73.5998C149.099 74.8998 149.299 75.1998 149.899 75.2998C151.099 75.3998 150.499 75.3998 151.999 75.4998C154.299 75.8998 153.799 77.5998 154.099 78.8998C154.699 81.5998 152.699 93.0998 152.199 96.3998C151.499 100.2 150.299 104.8 150.199 105.7C150.199 105.9 150.199 106.3 150.099 106.5C149.899 107.6 149.399 108.7 149.199 109.9C149.199 110.1 149.199 110.3 149.199 110.5C149.099 110.9 148.899 111.2 148.799 111.5C148.799 111.7 148.799 111.9 148.799 112.1C148.699 113 148.099 114 146.199 113.6C145.499 113.5 144.999 113.2 144.299 113C143.799 112.9 143.499 113.1 143.399 113.6C143.199 114.5 143.099 115.2 143.799 115.3C144.399 115.4 144.899 115.4 145.699 115.5C146.499 115.6 147.499 115.7 149.199 116C150.499 116.2 152.199 116.7 153.999 117.1C155.799 117.6 157.699 118.1 159.299 118.5C164.599 119.5 167.999 119.4 170.799 119.2Z" fill="#FFED00"></path> <path d="M209.099 125.7C205.899 124.8 201.199 122.2 197.799 116.7C195.399 112.9 194.999 106.9 196.599 100.8C197.299 98.1001 199.999 92.9001 200.799 92.5001C201.599 92.1001 204.699 89.1001 207.499 89.2001C208.899 89.3001 209.699 89.1001 211.799 89.7001C215.699 90.8001 215.599 91.3001 216.899 91.7001C217.199 91.8001 220.199 94.2001 221.799 96.3001C223.799 99.0001 226.099 105.2 223.799 113.8C223.699 114.3 220.999 123.4 216.099 125.6C214.899 126.1 212.299 126.6 209.099 125.7ZM212.999 128.9C215.499 128 216.299 129.1 223.299 124.7C225.299 123.4 226.099 122.4 226.499 122.2C226.699 122 226.799 121.6 226.999 121.4C227.399 121.1 227.999 120.5 228.499 119.9C229.999 118.3 231.799 114.4 232.299 112.7C233.599 107.7 233.499 104.4 232.599 100.4C232.299 98.9001 232.099 98.8001 231.899 98.5001C231.699 98.3001 231.999 97.9001 230.699 95.6001C230.599 95.4001 230.399 95.4001 230.299 95.3001C229.899 95.0001 227.799 90.0001 218.999 87.6001C213.199 86.0001 209.099 86.4001 204.799 87.3001C196.099 89.1001 190.299 95.6001 188.499 102.5C184.499 117.9 192.299 123.4 196.499 126C198.099 127.1 199.499 127.9 201.199 128.3C203.999 129 210.199 129.9 212.999 128.9Z" fill="#FFED00"></path> <path d="M203.999 54.8999C200.499 54.8999 197.699 57.3999 197.699 61.0999C197.699 64.7999 200.499 67.2999 203.999 67.2999C207.499 67.2999 210.299 64.7999 210.299 61.0999C210.299 57.4999 207.499 54.8999 203.999 54.8999ZM203.999 65.5999C201.499 65.5999 199.599 63.6999 199.599 61.1999C199.599 58.5999 201.499 56.6999 203.999 56.6999C206.499 56.6999 208.399 58.5999 208.399 61.1999C208.399 63.5999 206.499 65.5999 203.999 65.5999Z" fill="#FFED00"></path> <path d="M205 61.6001C205.8 61.6001 206.5 61.1001 206.5 60.0001C206.5 58.5001 205.5 58.1001 203.9 58.1001H201.6V64.3001H203.1V61.7001H203.4L204.8 64.3001H206.6L205 61.6001ZM204 60.5001H203.1V59.1001H203.8C204.3 59.1001 204.8 59.2001 204.8 59.8001C204.8 60.4001 204.5 60.5001 204 60.5001Z" fill="#FFED00"></path> <path d="M67.8988 30.4002L67.7988 30.5002V30.7002C67.7988 30.8002 67.7988 30.9002 67.7988 30.9002C67.7988 31.0002 67.7988 31.0002 67.7988 31.0002C67.7988 31.1002 67.7988 31.2002 67.7988 31.2002C67.7988 31.3002 67.7988 31.4002 67.7988 31.4002C67.7988 31.5002 67.7988 31.5002 67.7988 31.5002L67.8988 31.7002L67.9988 31.9002C67.9988 32.0002 68.0988 32.0002 68.0988 32.0002C68.0988 32.1002 68.2988 32.2002 68.2988 32.2002C68.9988 33.0002 69.7988 32.8002 70.0988 32.7002V32.6002C70.0988 32.5002 70.1988 32.4002 70.1988 32.3002C70.1988 32.0002 69.9988 31.7002 69.8988 31.5002L69.6988 31.2002C69.3988 31.0002 69.2988 31.0002 69.2988 31.0002C68.4988 30.2002 67.9988 30.3002 67.8988 30.4002Z" fill="#FFED00"></path> <path d="M70.9988 30C70.5988 30.2 70.3988 30.4 70.2988 30.6C70.3988 30.6 71.1988 30.3 71.1988 30.3C71.7988 30 72.0988 29.6 72.0988 29.5C71.9988 29.7 71.4988 29.7 70.9988 30Z" fill="#FFED00"></path> <path d="M96.4992 29.2999C96.4992 29.2999 96.2992 29.5999 96.1992 29.8999C96.7992 29.7999 98.9992 29.4999 99.7992 29.3999C99.4992 29.1999 98.6992 28.5999 98.6992 28.5999C98.2992 28.2999 97.6992 27.8999 97.5992 27.8999C97.1992 27.8999 96.7992 28.7999 96.4992 29.2999Z" fill="#FFED00"></path> <path d="M84.3996 31C84.1996 31.1 83.8996 31.5 83.5996 32.2C84.0996 32.1 85.1996 31.8 85.7996 31.7C85.4996 31.5 85.1996 31.3 85.1996 31.3C84.6996 31.1 84.4996 31 84.3996 31Z" fill="#FFED00"></path> <path d="M73.5996 43.8002C73.5996 43.9002 73.5996 43.9002 73.5996 44.0002C73.7996 44.6002 74.7996 44.9002 75.8996 44.6002V44.5002C75.8996 44.4002 75.8996 44.3002 75.8996 44.2002C75.8996 43.9002 75.8996 43.6002 75.7996 43.2002C75.5996 42.5002 75.2996 42.3002 75.0996 42.2002C74.1996 42.6002 73.5996 43.2002 73.5996 43.8002Z" fill="#FFED00"></path> <path d="M116.499 44.0001C115.699 44.0001 114.999 43.6001 114.499 42.8001C106.199 42.9001 97.9992 43.8001 89.9992 45.5001C85.7992 46.4001 81.5992 47.5001 77.4992 48.8001C76.9992 49.1001 76.6992 49.4001 76.6992 49.7001C76.6992 49.8001 76.6992 49.9001 76.7992 50.0001C77.0992 50.8001 77.9992 50.5001 77.9992 50.5001C81.9992 49.2001 86.1992 48.1001 90.2992 47.3001C98.8992 45.5001 107.699 44.6001 116.499 44.6001C125.299 44.6001 134.099 45.5001 142.699 47.3001C146.799 48.2001 150.999 49.3001 154.999 50.5001C154.999 50.5001 155.999 50.8001 156.299 50.0001C156.299 49.9001 156.399 49.8001 156.399 49.6001C156.399 49.3001 156.199 49.0001 155.799 48.7001C155.699 48.7001 155.699 48.6001 155.699 48.6001C151.599 47.3001 147.399 46.2001 143.199 45.3001C135.199 43.6001 126.899 42.7001 118.699 42.6001C117.899 43.6001 117.199 44.0001 116.499 44.0001Z" fill="#FFED00"></path> <path d="M157.2 43.2002C157.1 43.5002 157.1 43.8002 157.1 44.1002C157.1 44.4002 157.1 44.6002 157.2 44.7002C158.2 44.9002 159.1 44.6002 159.3 44.0002C159.3 43.9002 159.3 43.9002 159.3 43.8002C159.3 43.3002 158.7 42.6002 157.8 42.2002C157.7 42.3002 157.4 42.5002 157.2 43.2002Z" fill="#FFED00"></path> <path d="M109.398 29.5L101.298 30.1L95.2984 30.9L87.3984 32.3C87.2984 32.3 82.6984 33.4 82.6984 33.4C79.5984 34.2 76.4984 35 73.4984 36L72.8984 36.3C72.7984 36.4 72.5984 36.5 72.5984 36.5C72.4984 36.5 72.4984 36.6 72.4984 36.6C72.3984 36.7 72.3984 36.8 72.3984 36.8V37V37.1V37.3C72.4984 37.3 72.4984 37.4 72.4984 37.4C72.4984 37.5 72.5984 37.6 72.5984 37.6C72.8984 38.3 73.4984 38.2 73.9984 38L74.1984 37.9C78.6984 36.5 83.2984 35.3 87.7984 34.3C96.4984 32.5 105.398 31.5 114.398 31.3C114.998 30.4 115.798 29.8 116.598 29.8C117.398 29.8 118.198 30.4 118.798 31.3C127.798 31.4 136.698 32.4 145.398 34.3C149.898 35.3 154.498 36.5 158.998 37.9L159.198 38C159.698 38.2 160.398 38.3 160.698 37.6C160.698 37.5 160.798 37.4 160.798 37.4C160.798 37.3 160.798 37.3 160.798 37.3V37.2C160.798 37.1 160.798 37 160.798 37V36.9C160.698 36.8 160.698 36.8 160.698 36.8C160.598 36.7 160.598 36.7 160.598 36.7L160.398 36.6L160.298 36.5L159.698 36.2C156.698 35.2 153.598 34.4 150.498 33.6L145.898 32.6C145.798 32.6 137.898 31.2 137.898 31.2L131.898 30.4L123.798 29.8L116.698 29.6L109.398 29.5Z" fill="#FFED00"></path> <path d="M134.299 28.6002C134.299 28.6002 133.299 29.3002 133.199 29.4002C133.999 29.5002 136.199 29.8002 136.799 29.9002C136.699 29.6002 136.499 29.3002 136.499 29.3002C136.199 28.8002 135.799 27.9002 135.499 27.9002C135.299 27.8002 134.599 28.3002 134.299 28.6002Z" fill="#FFED00"></path> <path d="M147.799 31.3C147.799 31.3 147.499 31.5 147.199 31.7C147.799 31.8 148.899 32.1 149.399 32.2C149.099 31.5 148.799 31.1 148.599 31C148.399 31 148.199 31.1 147.799 31.3Z" fill="#FFED00"></path> <path d="M160.898 29.7002C160.998 29.8002 161.198 30.1002 161.698 30.4002C161.698 30.4002 162.498 30.6002 162.598 30.7002C162.498 30.5002 162.298 30.3002 161.898 30.1002C161.498 29.7002 161.098 29.7002 160.898 29.7002Z" fill="#FFED00"></path> <path d="M163.598 31L163.398 31.1L163.198 31.4C162.998 31.6 162.898 31.9 162.898 32.2C162.898 32.3 162.898 32.4 162.998 32.5L163.098 32.6C163.198 32.6 164.198 32.9 164.898 32.1L164.998 32C165.098 31.9 165.098 31.9 165.098 31.9C165.198 31.8 165.198 31.8 165.198 31.8C165.298 31.7 165.298 31.7 165.298 31.7C165.398 31.6 165.398 31.6 165.398 31.6V31.4C165.398 31.3 165.398 31.2 165.398 31.2C165.398 31.1 165.398 31 165.398 31C165.398 30.9 165.398 30.9 165.398 30.9V30.7L165.298 30.5L165.198 30.4C164.698 30.2 164.198 30.5 163.598 31Z" fill="#FFED00"></path> <path d="M113 8.7998C112.2 8.7998 111.7 8.99981 111.6 9.19981C111.7 9.29981 112.2 9.59981 113 9.59981L113.8 9.49981C113.8 9.49981 114 9.39981 114.1 9.39981V9.19981C114.1 9.19981 114.1 9.09981 114.1 8.99981C114 8.99981 113.9 8.89981 113.9 8.89981L113 8.7998Z" fill="#FFED00"></path> <path d="M114.098 10.4002L113.898 10.9002L114.098 11.5002L114.698 11.7002C114.698 11.7002 114.998 11.6002 115.098 11.6002C115.098 11.6002 115.198 11.3002 115.298 11.1002C114.898 10.9002 114.698 10.6002 114.498 10.2002C114.298 10.3002 114.198 10.4002 114.098 10.4002Z" fill="#FFED00"></path> <path d="M114.098 6.8001L113.898 7.4001C113.898 7.6001 113.998 7.9001 114.198 8.0001C114.198 8.0001 114.298 8.0001 114.398 8.1001C114.598 7.7001 114.898 7.4001 115.198 7.2001C115.098 7.0001 114.998 6.7001 114.898 6.6001C114.898 6.7001 114.598 6.6001 114.598 6.6001L114.098 6.8001Z" fill="#FFED00"></path> <path d="M116.1 7.7998C115.6 7.9998 115.2 8.39981 115.1 8.89981V9.2998V9.59981C115.2 10.0998 115.6 10.4998 116.1 10.6998C116.2 10.6998 116.5 10.7998 116.5 10.7998L116.9 10.6998C117.4 10.5998 117.8 10.1998 117.9 9.69981C117.9 9.59981 118 9.2998 118 9.2998V8.99981C117.9 8.49981 117.5 8.09981 117 7.89981L116.6 7.7998H116.1Z" fill="#FFED00"></path> <path d="M115.6 4.4999L115.8 6.0999C115.8 6.0999 116 6.5999 116.1 6.6999C116.3 6.6999 116.5 6.6999 116.5 6.6999C116.5 6.6999 116.7 6.6999 116.8 6.6999C116.9 6.5999 117.1 6.1999 117.1 6.1999L117.3 4.4999C117.3 3.1999 117 2.2999 116.6 1.9999L116.4 1.8999C116.1 1.8999 115.6 2.8999 115.6 4.4999Z" fill="#FFED00"></path> <path d="M117.899 6.7C117.899 6.8 117.799 7 117.699 7.1C118.099 7.3 118.399 7.7 118.599 8C118.699 7.9 118.999 7.9 118.999 7.9C119.099 7.8 119.199 7.6 119.199 7.3L118.999 6.7L118.399 6.5C118.299 6.6 117.899 6.7 117.899 6.7Z" fill="#FFED00"></path> <path d="M114.299 1.8C113.899 2.4 113.799 3.1 113.699 3.5V3.7C113.599 3.9 113.399 4.1 113.199 4.1H111.499C111.199 4.2 110.399 4.5 109.899 5.1C109.399 5.6 109.199 6.3 109.199 7C109.199 7.6 109.299 8.2 109.599 8.9L109.899 9.4C109.999 9.5 109.999 9.6 109.999 9.7C109.999 9.8 109.899 10 109.799 10.1L109.399 10.4L108.499 11.2C107.999 11.9 107.699 12.8 107.699 13.7C107.699 14.1 107.799 14.6 107.899 15C108.199 15 109.499 14.8 109.499 14.8C111.599 14.8 113.499 15.5 114.799 16.8C115.999 18 116.599 19.6 116.699 21.4C116.799 19.7 117.399 18 118.599 16.8C119.899 15.5 121.699 14.8 123.899 14.8C123.899 14.8 125.099 15 125.399 15C125.499 14.6 125.599 14.2 125.599 13.7C125.599 12.8 125.299 11.9 124.799 11.2L123.899 10.4L123.499 10.1C123.399 10 123.299 9.9 123.299 9.7C123.299 9.6 123.299 9.5 123.399 9.4L123.699 8.9C123.899 8.2 124.099 7.6 124.099 7C124.099 6.3 123.899 5.7 123.399 5.1C122.899 4.5 122.099 4.2 121.799 4.1H120.099C119.899 4.1 119.699 4 119.599 3.7V3.5C119.499 3.1 119.399 2.4 118.999 1.8C118.499 0.999999 117.999 0.5 116.899 0.5C115.299 0.5 114.899 0.899999 114.299 1.8ZM114.699 4.5C114.699 2.4 115.399 1 116.499 1C117.499 1 118.299 2.5 118.299 4.6C118.299 4.6 118.199 5.3 118.199 5.7C118.299 5.7 118.399 5.7 118.399 5.7C118.899 5.7 119.299 5.9 119.599 6.2C119.899 6.5 120.099 7 120.099 7.5C120.099 7.5 119.999 7.7 119.999 7.9C121.399 7.9 122.399 8.5 122.399 9.2C122.399 10 121.399 10.5 119.999 10.5C119.999 10.7 120.099 10.9 120.099 10.9C120.099 11.4 119.899 11.8 119.599 12.2C119.299 12.5 118.799 12.7 118.399 12.7C118.399 12.7 118.299 12.7 118.199 12.7C118.199 13.1 118.299 13.9 118.299 13.9C118.299 15.3 117.999 16.5 117.399 17L116.499 17.4L115.599 17C114.999 16.4 114.699 15.2 114.699 13.8C114.699 13.8 114.799 13.1 114.799 12.6H114.699C114.199 12.6 113.799 12.4 113.499 12.1C113.199 11.8 112.999 11.3 112.999 10.8C112.999 10.8 112.999 10.6 113.099 10.4C111.699 10.4 110.699 9.8 110.699 9.1L110.999 8.4C111.399 8 112.199 7.7 113.099 7.7C113.099 7.7 113.099 7.7 113.199 7.7C113.199 7.5 113.099 7.2 113.099 7.2C113.099 6.2 113.899 5.4 114.799 5.4C114.699 5.3 114.699 4.5 114.699 4.5ZM115.499 25.5C114.899 26.5 113.999 27.4 113.399 27.8C113.399 27.8 112.699 28.2 112.099 28.5C113.299 28.5 116.399 28.4 116.399 28.4C116.399 28.4 119.499 28.5 120.699 28.5C120.099 28.2 119.399 27.8 119.399 27.8C118.799 27.4 117.899 26.4 117.299 25.5C116.699 24.5 116.399 23.3 116.299 22C116.399 23.3 116.099 24.5 115.499 25.5Z" fill="#FFED00"></path> <path d="M119.998 8.7998L119.198 8.89981C119.198 8.89981 118.998 8.99981 118.898 8.99981C118.898 9.09981 118.898 9.19981 118.898 9.19981C118.898 9.19981 118.898 9.29981 118.898 9.39981C118.998 9.49981 119.298 9.49981 119.298 9.49981L120.098 9.59981C120.998 9.59981 121.498 9.29981 121.598 9.19981C121.398 9.09981 120.898 8.7998 119.998 8.7998Z" fill="#FFED00"></path> <path d="M115.8 12.2001L115.6 13.9001C115.6 15.5001 116.2 16.5001 116.5 16.5001L116.7 16.4001C117 16.1001 117.3 15.2001 117.3 13.9001C117.3 13.3001 117.2 12.6001 117 12.1001C117 12.1001 116.8 11.7001 116.8 11.6001C116.7 11.6001 116.5 11.6001 116.5 11.6001C116.5 11.6001 116.3 11.6001 116.1 11.6001C116.1 11.7001 115.8 12.2001 115.8 12.2001Z" fill="#FFED00"></path> <path d="M117.699 11.1998C117.799 11.3998 117.899 11.6998 117.899 11.6998C117.799 11.5998 118.299 11.7998 118.299 11.7998C118.699 11.7998 119.099 11.3998 119.099 10.9998L118.899 10.3998C118.899 10.3998 118.699 10.2998 118.599 10.2998C118.299 10.6998 117.999 10.9998 117.699 11.1998Z" fill="#FFED00"></path> <path d="M82.3 23.7001C82.3 23.7001 82.2 23.7001 82.1 23.7001C82.1 23.9001 82 24.0001 82 24.3001C82 24.6001 82.1 25.1001 82.2 25.5001C82.6 26.8001 83.2 27.3001 83.3 27.3001C83.4 27.3001 83.5 26.9001 83.5 26.4001C83.5 26.1001 83.5 25.6001 83.3 25.2001C83.1 24.4001 82.7 23.9001 82.5 23.6001C82.4 23.6001 82.3 23.7001 82.3 23.7001Z" fill="#FFED00"></path> <path d="M81.3996 20.6001L81.0996 20.7001C80.7996 20.9001 80.5996 21.3001 80.5996 21.6001V21.9001L80.6996 22.2001C80.8996 22.5001 81.1996 22.7001 81.5996 22.8001H81.8996L82.1996 22.7001C82.4996 22.5001 82.6996 22.1001 82.6996 21.7001V21.4001L82.5996 21.2001C82.3996 20.8001 81.9996 20.6001 81.5996 20.6001H81.3996Z" fill="#FFED00"></path> <path d="M80.0984 16C79.8984 16.3 79.8984 16.5 79.8984 16.9C79.8984 17.2 79.9984 17.7 80.0984 18.2C80.2984 19 80.6984 19.5 80.8984 19.8C80.9984 19.8 81.0984 19.7 81.0984 19.7C81.0984 19.7 81.1984 19.7 81.2984 19.7C81.2984 19.5 81.3984 19.4 81.3984 19.2C81.3984 18.8 81.2984 18.4 81.1984 17.9C80.8984 16.9 80.4984 16.3 80.1984 16.1L80.0984 16Z" fill="#FFED00"></path> <path d="M78.9 22.2C78.4 22.3 78.1 22.6 78 22.7C78.2 22.8 78.5 22.8 79 22.6C79 22.6 79.6 22.3 79.7 22.2V22.1C79.7 22.1 79.7 22.1 79.7 22C79.6 22.2 78.9 22.2 78.9 22.2Z" fill="#FFED00"></path> <path d="M84.3996 20.5999C84.3996 20.5999 83.7996 20.8999 83.5996 20.9999V21.0999C83.5996 21.0999 83.5996 21.0999 83.5996 21.1999C83.7996 21.1999 84.3996 21.0999 84.3996 21.0999C84.8996 20.9999 85.1996 20.6999 85.2996 20.5999C85.2996 20.4999 84.8996 20.4999 84.3996 20.5999Z" fill="#FFED00"></path> <path d="M79.0996 12.6001C78.5996 12.8001 78.0996 13.3001 77.8996 14.0001C77.6996 14.6001 77.6996 15.2001 77.7996 15.9001L77.6996 16.3001L77.3996 16.5001L76.7996 16.6001C76.1996 16.8001 75.6996 17.1001 75.4996 17.6001C75.2996 18.1001 75.4996 18.8001 75.8996 19.5001L76.4996 20.2001C76.6996 20.4001 76.6996 20.6001 76.4996 20.8001C75.8996 21.6001 75.6996 22.7001 75.9996 23.7001C76.1996 24.5001 76.7996 25.2001 77.4996 25.6001L77.8996 25.8001L78.0996 26.0001V26.2001V27.1001C78.1996 27.9001 78.4996 28.6001 79.0996 29.1001C79.6996 29.5001 80.2996 29.6001 80.9996 29.4001C81.0996 29.4001 81.3996 29.2001 81.3996 29.2001C81.5996 29.1001 81.6996 29.1001 81.8996 29.2001C81.9996 29.3001 82.0996 29.5001 82.0996 29.6001C81.9996 30.6001 80.7996 32.4001 78.9996 32.9001C77.8996 33.2001 76.7996 33.2001 75.5996 32.8001C74.8996 32.6001 74.1996 32.1001 73.8996 31.6001L73.7996 31.5001V31.3001L73.8996 31.0001C74.3996 30.2001 73.7996 28.9001 73.2996 28.2001C72.7996 27.6001 71.8996 27.7001 70.8996 27.8001C70.5996 27.8001 70.2996 27.7001 70.2996 27.4001L69.9996 26.6001C69.6996 26.0001 69.2996 25.6001 68.7996 25.5001C68.2996 25.4001 67.8996 25.6001 67.4996 26.0001L66.9996 26.8001L66.8996 26.9001L66.6996 27.0001H66.4996H66.3996C65.7996 26.6001 65.2996 26.3001 64.7996 26.2001H64.4996L63.7996 26.4001L63.6996 26.5001C63.6996 26.5001 63.6996 26.6001 63.5996 26.7001C63.7996 26.8001 64.6996 27.5001 64.6996 27.5001C65.7996 27.4001 66.6996 27.8001 67.3996 28.7001C67.3996 28.7001 67.7996 29.3001 67.8996 29.4001C68.3996 29.3001 68.8996 29.6001 69.4996 30.0001C69.7996 29.7001 70.0996 29.4001 70.4996 29.1001C71.1996 28.8001 71.8996 28.6001 72.2996 28.8001L72.7996 29.2001V29.9001C72.5996 30.5001 71.9996 30.9001 71.3996 31.2001C71.3996 31.2001 70.8996 31.4001 70.5996 31.5001C70.6996 31.7001 70.7996 32.0001 70.7996 32.2001C70.7996 32.3001 70.7996 32.3001 70.7996 32.4001C70.9996 32.5001 71.4996 32.9001 71.4996 32.9001C72.4996 33.7001 72.6996 34.6001 72.7996 35.3001C72.8996 35.3001 73.0996 35.2001 73.1996 35.2001C76.1996 34.3001 79.1996 33.4001 82.2996 32.6001C82.2996 32.5001 82.5996 32.1001 82.5996 32.1001C82.8996 31.4001 83.3996 30.4001 84.0996 30.2001C84.6996 30.0001 85.1996 30.3001 85.5996 30.6001L86.4996 31.1001L87.2996 31.5001C87.2996 31.5001 94.7996 30.1001 94.9996 30.1001L95.0996 29.9001L95.6996 28.9001C96.1996 28.0001 96.5996 27.2001 97.2996 27.0001C97.7996 26.9001 98.3996 27.3001 99.1996 27.9001C99.2996 28.0001 100.4 28.7001 100.4 28.7001L101.4 29.3001L109.3 28.7001C110.8 28.3001 112.2 27.6001 112.8 27.1001C113.3 26.7001 114.1 25.9001 114.6 25.0001C115.2 24.0001 115.5 22.9001 115.5 21.5001C115.5 19.9001 114.9 18.4001 113.8 17.3001C112.7 16.2001 111.1 15.6001 109.2 15.6001L107.5 15.9001L107.2 16.0001C107.1 16.0001 107 16.1001 107 16.1001C106.9 16.2001 106.7 16.3001 106.7 16.3001C106.6 16.3001 106.4 16.5001 106.4 16.5001L106.2 16.6001C106.1 16.7001 105.9 16.8001 105.9 16.8001C105.8 16.9001 105.7 17.0001 105.7 17.0001C105.6 17.1001 105.4 17.3001 105.4 17.3001C104.4 18.3001 103.8 19.4001 103.9 21.6001C104 22.9001 104.5 24.0001 105.5 24.8001C106.6 25.7001 108.5 26.0001 109.7 25.6001L110 25.5001C111.1 25.0001 111.7 24.3001 111.9 23.8001C112.4 22.9001 112.4 22.5001 112.4 22.0001V21.7001C112.4 21.0001 112 20.2001 111.5 19.8001C111 19.3001 110.5 18.9001 109.4 18.9001C108.8 18.9001 108 19.1001 107.7 19.5001C107.4 19.9001 107.2 20.3001 107.1 20.9001C107.1 21.4001 107.3 22.1001 107.6 22.4001C107.9 22.7001 108.4 22.9001 109 22.8001C109.9 22.8001 110.2 22.1001 110.2 22.0001C110.2 21.5001 110.1 21.3001 109.9 21.1001C109.6 20.9001 109.4 21.0001 109.2 21.2001C109 21.4001 108.7 21.4001 108.6 21.2001C108.4 21.0001 108.4 20.8001 108.5 20.6001C108.7 20.2001 109.2 20.0001 109.5 20.0001L110.5 20.3001C110.9 20.6001 111.2 21.1001 111.2 21.5001C111.2 21.9001 111.3 22.3001 110.8 23.0001C110.4 23.5001 109.9 23.7001 109.1 23.8001C108.4 23.8001 107.5 23.6001 106.9 23.0001C106.6 22.7001 106.1 21.7001 106.2 20.9001C106.2 20.1001 106.5 19.6001 106.8 19.1001C107.3 18.2001 108.3 17.8001 109.5 17.8001C110.6 17.8001 111.5 18.1001 112.3 18.9001C112.9 19.4001 113.5 20.4001 113.5 21.6001L113.4 23.0001L112.9 24.4001C112.9 24.5001 112 25.6001 112 25.6001C111.8 25.9001 111.1 26.5001 109.9 27.0001L109.4 27.2001C107.4 27.8001 104.7 27.9001 102.8 27.4001C100.8 26.8001 99.2996 25.7001 98.7996 25.3001C98.1996 24.8001 97.6996 24.1001 97.4996 23.8001C97.3996 23.7001 97.3996 23.5001 97.4996 23.4001C97.5996 23.3001 97.6996 23.1001 97.7996 23.1001L98.6996 22.9001C99.1996 22.8001 99.5996 22.5001 99.7996 22.2001C99.9996 21.9001 100.1 21.5001 99.9996 21.1001C99.8996 20.7001 99.5996 20.4001 99.1996 20.2001C98.7996 20.0001 98.2996 19.9001 97.7996 20.0001L97.3996 19.9001L97.1996 19.6001C96.9996 19.0001 96.7996 18.5001 96.3996 18.3001C96.0996 18.0001 95.6996 17.9001 95.2996 18.0001C94.8996 18.1001 94.6996 18.3001 94.4996 18.7001C94.2996 19.1001 94.2996 19.6001 94.3996 20.1001C94.3996 20.2001 94.3996 20.6001 94.3996 20.6001L94.0996 20.8001C93.5996 20.9001 93.1996 21.2001 92.9996 21.5001C92.7996 21.8001 92.6996 22.2001 92.7996 22.6001C92.8996 23.0001 93.1996 23.3001 93.5996 23.5001C93.9996 23.7001 94.4996 23.8001 94.9996 23.7001L95.6996 23.5001C95.7996 23.5001 95.9996 23.5001 96.0996 23.6001C96.1996 23.7001 96.2996 23.8001 96.2996 24.0001C96.2996 24.5001 96.1996 25.4001 95.4996 26.5001C94.5996 27.9001 92.9996 29.6001 91.4996 30.0001C89.9996 30.4001 88.8996 30.4001 87.6996 29.9001C86.5996 29.5001 85.9996 28.6001 85.9996 28.5001C85.8996 28.4001 85.8996 28.2001 85.9996 28.0001C86.0996 27.8001 86.1996 27.7001 86.3996 27.7001L86.7996 27.6001C87.4996 27.4001 87.9996 26.9001 88.2996 26.3001C88.4996 25.6001 88.4996 24.9001 88.0996 24.1001L87.6996 23.4001C87.5996 23.2001 87.5996 23.0001 87.6996 22.8001C88.2996 22.0001 88.4996 21.0001 88.1996 20.0001C87.8996 19.0001 87.1996 18.2001 86.1996 17.9001C85.9996 17.8001 85.7996 17.6001 85.8996 17.3001L85.9996 16.4001C85.9996 15.6001 85.7996 15.0001 85.2996 14.6001C84.8996 14.3001 84.2996 14.2001 83.6996 14.4001L83.0996 14.7001C82.9996 14.8001 82.7996 14.8001 82.6996 14.8001L81.9996 14.7001C81.6996 14.1001 81.2996 13.5001 80.8996 13.1001C80.2996 12.6001 79.6996 12.4001 79.0996 12.6001ZM79.1996 18.4001C78.9996 17.9001 78.9996 17.4001 78.9996 16.9001C78.9996 16.4001 79.0996 16.0001 79.2996 15.6001L79.8996 15.0001L80.6996 15.1001C81.2996 15.4001 81.8996 16.3001 82.1996 17.4001C82.2996 17.9001 82.3996 18.4001 82.3996 18.9001C82.3996 19.1001 82.3996 19.4001 82.2996 19.6001C82.5996 19.7001 82.8996 19.9001 83.0996 20.1001C83.2996 20.0001 84.0996 19.6001 84.0996 19.6001C84.7996 19.4001 85.4996 19.4001 85.9996 19.6001L86.3996 20.1001L86.2996 20.8001C86.0996 21.2001 85.4996 21.6001 84.6996 21.8001C84.6996 21.8001 83.8996 21.9001 83.4996 21.9001C83.3996 22.2001 83.2996 22.5001 83.0996 22.8001C83.4996 23.3001 83.8996 23.9001 84.0996 24.7001C84.2996 25.2001 84.2996 25.8001 84.2996 26.2001C84.2996 27.1001 83.9996 27.8001 83.3996 28.0001C82.4996 28.3001 81.5996 27.2001 81.0996 25.5001C80.9996 25.0001 80.8996 24.5001 80.8996 24.0001C80.8996 23.7001 80.8996 23.5001 80.9996 23.3001C80.6996 23.2001 80.3996 23.0001 80.1996 22.8001C79.9996 22.9001 79.1996 23.3001 79.1996 23.3001C78.4996 23.5001 77.7996 23.5001 77.2996 23.3001L76.9996 23.0001L77.0996 22.3001C77.2996 21.9001 77.8996 21.5001 78.6996 21.3001C78.6996 21.3001 79.4996 21.2001 79.7996 21.2001C79.8996 20.9001 79.9996 20.6001 80.1996 20.4001C79.7996 19.9001 79.3996 19.2001 79.1996 18.4001Z" fill="#FFED00"></path> <path d="M149.598 25.2001C149.498 25.7001 149.398 26.1001 149.398 26.4001C149.398 26.9001 149.498 27.3001 149.598 27.3001C149.798 27.3001 150.398 26.8001 150.698 25.5001C150.798 25.0001 150.898 24.6001 150.898 24.3001C150.898 24.1001 150.898 23.9001 150.798 23.7001C150.698 23.7001 150.598 23.7001 150.598 23.7001C150.598 23.7001 150.498 23.7001 150.398 23.6001C150.198 23.8001 149.798 24.4001 149.598 25.2001Z" fill="#FFED00"></path> <path d="M152.7 15.9999C152.4 16.1999 151.9 16.7999 151.7 17.7999C151.6 18.1999 151.5 18.6999 151.5 19.0999C151.5 19.2999 151.5 19.4999 151.6 19.5999C151.7 19.5999 151.8 19.5999 151.8 19.5999C151.8 19.5999 151.9 19.6999 152 19.6999C152.3 19.3999 152.6 18.8999 152.8 18.0999C152.9 17.5999 153 17.1999 153 16.7999C153 16.3999 152.9 16.1999 152.9 15.9999L152.8 15.8999C152.8 15.9999 152.7 15.9999 152.7 15.9999Z" fill="#FFED00"></path> <path d="M153.199 22.2002C153.399 22.4002 153.899 22.6002 153.899 22.6002C154.399 22.7002 154.699 22.7002 154.899 22.7002C154.799 22.6002 154.499 22.3002 153.999 22.2002C153.999 22.2002 153.399 22.2002 153.199 22.2002Z" fill="#FFED00"></path> <path d="M147.5 20.5999C147.6 20.6999 147.9 20.9999 148.4 21.0999C148.4 21.0999 149 21.1999 149.2 21.1999V21.0999C149.2 21.0999 149.2 21.0999 149.2 20.9999C149 20.8999 148.4 20.5999 148.4 20.5999C148 20.4999 147.6 20.4999 147.5 20.5999Z" fill="#FFED00"></path> <path d="M150.2 21.0999L150.1 21.2999V21.5999C150.1 21.9999 150.3 22.3999 150.6 22.5999L150.9 22.6999H151.2C151.6 22.6999 151.9 22.4999 152.1 22.0999L152.2 21.7999V21.4999C152.2 21.0999 152 20.6999 151.7 20.4999L151.4 20.3999H151.1C150.8 20.4999 150.4 20.7999 150.2 21.0999Z" fill="#FFED00"></path> <path d="M152 13.1001C151.6 13.5001 151.2 14.0001 150.9 14.7001L150.6 15.0001C150.5 15.0001 150.3 15.0001 150.2 14.9001L149.6 14.6001C149 14.4001 148.4 14.4001 148 14.8001C147.6 15.2001 147.3 15.8001 147.3 16.6001L147.4 17.5001C147.5 17.7001 147.3 18.0001 147.1 18.1001C146.1 18.4001 145.4 19.2001 145.1 20.2001C144.8 21.2001 145 22.2001 145.6 23.0001C145.7 23.2001 145.7 23.4001 145.6 23.6001L145.2 24.3001C144.8 25.1001 144.8 25.8001 145 26.5001C145.2 27.1001 145.8 27.6001 146.5 27.8001L146.9 27.9001C147.1 27.9001 147.2 28.0001 147.3 28.2001C147.4 28.4001 147.4 28.5001 147.3 28.7001C147.1 28.9001 146.6 29.7001 145.6 30.1001C144.4 30.5001 143.3 30.6001 141.8 30.2001C140.3 29.8001 138.7 28.1001 137.8 26.7001C137.1 25.5001 137 24.7001 137 24.2001C137 24.0001 137.1 23.9001 137.2 23.8001C137.3 23.7001 137.5 23.7001 137.6 23.7001L138.4 23.9001C138.8 24.0001 139.3 24.0001 139.7 23.7001C140.1 23.5001 140.3 23.2001 140.5 22.8001C140.6 22.4001 140.5 22.0001 140.3 21.7001C140 21.3001 139.6 21.1001 139.2 21.0001L138.9 20.8001V20.4001C139.1 19.8001 139 19.3001 138.8 18.9001C138.6 18.5001 138.3 18.3001 138 18.2001C137.6 18.1001 137.2 18.2001 136.9 18.5001C136.5 18.8001 136.2 19.2001 136.1 19.7001C136.1 19.8001 135.9 20.1001 135.9 20.1001L135.5 20.2001C135 20.1001 134.5 20.1001 134.1 20.4001C133.7 20.6001 133.4 20.9001 133.3 21.3001C133.2 21.7001 133.3 22.1001 133.5 22.4001C133.8 22.8001 134.2 23.0001 134.6 23.1001L135.5 23.3001C135.6 23.3001 135.8 23.4001 135.8 23.6001C135.9 23.7001 135.8 23.9001 135.8 24.0001L134.5 25.5001C134.1 25.8001 132.6 27.0001 130.5 27.6001C128.6 28.1001 125.9 28.1001 123.9 27.4001L123.4 27.2001C122.2 26.7001 121.6 26.1001 121.3 25.8001L120.4 24.7001C120.4 24.6001 119.8 23.3001 119.8 23.3001L119.7 21.9001C119.8 20.7001 120.4 19.7001 120.9 19.2001C121.7 18.4001 122.6 18.1001 123.7 18.1001C125 18.1001 125.9 18.5001 126.4 19.4001C126.7 19.9001 127 20.5001 127 21.2001C127 22.0001 126.5 23.0001 126.3 23.3001C125.8 23.9001 124.8 24.1001 124.1 24.1001C123.3 24.0001 122.7 23.8001 122.4 23.3001C121.9 22.6001 121.9 22.2001 122 21.9001C122.1 21.3001 122.3 20.9001 122.7 20.6001L123.6 20.3001C124 20.3001 124.4 20.5001 124.7 20.9001C124.8 21.1001 124.8 21.4001 124.6 21.5001C124.4 21.7001 124.1 21.7001 124 21.5001C123.8 21.3001 123.5 21.2001 123.3 21.4001C123.1 21.6001 123 21.7001 123 22.3001C123 22.4001 123.2 23.0001 124.2 23.1001C124.8 23.1001 125.3 23.0001 125.6 22.7001C125.9 22.4001 126.1 21.7001 126.1 21.2001C126.1 20.7001 125.8 20.2001 125.5 19.8001C125.2 19.4001 124.4 19.2001 123.8 19.2001C122.7 19.2001 122.2 19.6001 121.8 20.0001C121.2 20.5001 120.8 21.2001 120.8 21.9001V22.2001C120.8 22.7001 120.8 23.2001 121.3 24.0001C121.6 24.6001 122.3 25.4001 123.5 25.8001C124.7 26.2001 126.6 25.9001 127.7 25.0001C128.7 24.3001 129.2 23.2001 129.3 21.8001C129.4 19.6001 128.8 18.5001 127.8 17.5001L127.6 17.3001C127.5 17.2001 127.4 17.0001 127.4 17.0001C127.3 17.0001 127.3 17.0001 127.3 17.0001L127.1 16.9001C127 16.8001 126.8 16.7001 126.8 16.7001L126.5 16.5001C126.4 16.5001 126.2 16.4001 126.2 16.4001C126.1 16.4001 125.9 16.3001 125.9 16.3001C125.8 16.3001 125.5 16.2001 125.5 16.2001L123.8 16.0001C121.9 16.0001 120.3 16.6001 119.2 17.7001C118.1 18.8001 117.5 20.3001 117.5 21.9001C117.5 23.2001 117.8 24.4001 118.4 25.4001C118.9 26.2001 119.7 27.1001 120.2 27.5001C120.9 28.0001 122.2 28.7001 123.8 29.1001C123.8 29.1001 131.7 29.7001 131.8 29.7001L132.7 29.1001L133.8 28.3001C134.7 27.6001 135.3 27.2001 135.8 27.3001C136.5 27.5001 136.9 28.3001 137.4 29.2001L138 30.2001L138.2 30.4001C138.2 30.4001 145.8 31.7001 145.9 31.7001L146.5 31.3001L147.4 30.8001C147.9 30.5001 148.3 30.2001 148.9 30.4001C149.6 30.6001 150.1 31.5001 150.4 32.3001L150.7 32.9001C153.7 33.6001 156.8 34.5001 159.7 35.4001C159.7 35.4001 159.9 35.5001 160 35.5001C160 34.9001 160.3 33.9001 161.3 33.1001C161.3 33.1001 161.8 32.8001 162 32.6001C162 32.5001 162 32.5001 162 32.4001C162 32.2001 162.1 32.0001 162.2 31.7001C161.9 31.6001 161.4 31.4001 161.4 31.4001C160.9 31.1001 160.2 30.6001 160 30.1001V29.4001L160.5 29.0001C161 28.8001 161.8 29.0001 162.3 29.3001C162.8 29.5001 163.1 29.8001 163.3 30.2001C163.9 29.8001 164.4 29.5001 164.9 29.6001C165 29.4001 165.4 28.9001 165.4 28.9001C166.1 28.0001 167 27.7001 168.1 27.8001C168.1 27.7001 168.9 27.2001 169.1 27.0001C169.1 26.8001 169 26.7001 168.9 26.6001C168.7 26.4001 168.3 26.3001 167.9 26.4001C167.4 26.5001 166.9 26.8001 166.4 27.2001L166 27.3001L165.7 27.1001L165.3 26.6001C164.9 26.2001 164.4 26.0001 164 26.1001C163.5 26.2001 163.1 26.6001 162.8 27.2001L162.5 28.0001C162.4 28.2001 162.2 28.4001 162 28.4001C161 28.3001 160.1 28.2001 159.5 28.8001C158.9 29.4001 158.3 30.7001 158.9 31.6001L159 31.9001V32.0001L158.9 32.2001C158.5 32.7001 157.9 33.1001 157.2 33.4001C156 33.8001 154.9 33.8001 153.8 33.5001C152 32.9001 150.8 31.2001 150.7 30.2001C150.7 30.0001 150.8 29.9001 150.9 29.8001C151 29.7001 151.2 29.7001 151.4 29.8001L151.7 29.9001C152.5 30.2001 153.1 30.1001 153.7 29.6001C154.3 29.2001 154.6 28.5001 154.7 27.6001V26.7001V26.5001L154.8 26.4001L155 26.3001L155.6 26.0001L156.6 24.8001L156.8 24.2001C157.1 23.2001 156.9 22.2001 156.3 21.3001C156.2 21.1001 156.2 20.8001 156.3 20.7001L156.9 20.0001C157.3 19.3001 157.4 18.7001 157.3 18.1001C157.1 17.6001 156.7 17.2001 156 17.1001L155.4 17.0001L155.1 16.8001C155 16.7001 155 16.6001 155 16.4001C155.1 15.7001 155 15.1001 154.9 14.5001C154.7 13.7001 154.3 13.2001 153.7 13.1001C153.3 12.4001 152.6 12.6001 152 13.1001ZM150.5 19.1001C150.5 18.6001 150.6 18.1001 150.7 17.6001C151 16.5001 151.6 15.6001 152.2 15.3001L153 15.2001L153.6 15.8001C153.8 16.1001 153.9 16.6001 153.9 17.1001C153.9 17.6001 153.8 18.1001 153.7 18.6001C153.5 19.4001 153.1 20.1001 152.7 20.5001C152.9 20.7001 153 21.0001 153.1 21.3001C153.3 21.3001 154.2 21.4001 154.2 21.4001C154.9 21.6001 155.5 22.0001 155.8 22.4001L155.9 23.1001L155.5 23.6001C155.1 23.8001 154.4 23.9001 153.6 23.6001C153.6 23.6001 152.9 23.2001 152.6 23.1001C152.4 23.3001 152.1 23.5001 151.8 23.6001C151.8 23.8001 151.9 24.0001 151.9 24.3001C151.9 24.8001 151.8 25.3001 151.7 25.8001C151.2 27.5001 150.3 28.5001 149.4 28.3001C148.8 28.1001 148.5 27.4001 148.5 26.5001C148.5 26.0001 148.6 25.5001 148.7 25.0001C148.9 24.2001 149.3 23.5001 149.7 23.1001C149.5 22.8001 149.3 22.6001 149.3 22.2001C149.1 22.2001 148.1 22.1001 148.1 22.1001C147.4 21.9001 146.8 21.5001 146.5 21.1001L146.4 20.4001C146.6 19.6001 147.7 19.6001 148.7 19.8001C148.7 19.8001 149.5 20.2001 149.7 20.3001C149.9 20.1001 150.2 19.9001 150.5 19.8001C150.6 19.5001 150.5 19.3001 150.5 19.1001Z" fill="#FFED00"></path> <path d="M114.7 35.3C114.3 35.7 114.1 36.3 114.1 36.8C114.1 37.4 114.3 37.9 114.7 38.3C115.2 38.8 115.8 39 116.5 39C117.8 39 118.9 38 118.9 36.7C118.9 36.1 118.7 35.6 118.3 35.2C117.8 34.7 117.2 34.5 116.5 34.5C115.8 34.5 115.1 34.8 114.7 35.3Z" fill="#FFED00"></path> <path d="M114.9 32.0002C114.6 32.6002 114.3 33.4002 114.3 34.2002C114.3 34.4002 114.1 34.6002 113.9 34.6002C112 34.8002 110.5 35.7002 110.5 36.8002C110.5 37.9002 112 38.9002 113.9 39.0002C114.1 39.0002 114.3 39.2002 114.3 39.4002C114.4 40.3002 114.6 41.2002 115.1 41.9002C115.5 42.5002 116 42.9002 116.5 42.9002C117 42.9002 117.5 42.5002 117.9 41.9002C118.3 41.3002 118.6 40.4002 118.7 39.4002C118.7 39.2002 118.9 39.0002 119.1 39.0002C121 38.8002 122.5 37.9002 122.5 36.8002C122.5 35.7002 121 34.7002 119.1 34.6002C118.9 34.6002 118.7 34.4002 118.7 34.2002C118.6 33.4002 118.4 32.6002 118.1 31.9002C117.7 31.1002 117.1 30.7002 116.5 30.7002C115.9 30.7002 115.3 31.2002 114.9 32.0002ZM113.1 36.8002C113.1 35.0002 114.6 33.6002 116.4 33.6002C117.3 33.6002 118.2 34.0002 118.8 34.6002C119.4 35.2002 119.7 36.0002 119.7 36.8002C119.7 37.6002 119.4 38.4002 118.8 39.0002C118.2 39.6002 117.3 40.0002 116.4 40.0002C115.5 40.0002 114.6 39.6002 114 39.0002C113.4 38.4002 113.1 37.6002 113.1 36.8002Z" fill="#FFED00"></path> <path d="M87.7996 35.0999C87.6996 35.0999 87.5996 35.0999 87.5996 35.1999C88.3996 35.3999 89.1996 35.9999 89.6996 37.1999C91.2996 36.9999 92.6996 37.5999 92.9996 38.6999C92.9996 38.8999 93.0996 38.9999 93.0996 39.1999C93.0996 40.1999 92.2996 41.0999 90.9996 41.6999C90.9996 41.8999 91.0996 42.1999 91.0996 42.3999C91.0996 43.3999 90.6996 44.0999 90.0996 44.5999C97.8996 42.9999 105.9 42.0999 113.9 41.8999C113.7 41.2999 113.5 40.6999 113.4 40.0999C111.1 39.7999 109.5 38.4999 109.5 36.9999C109.5 35.4999 111.1 34.1999 113.4 33.8999C113.5 33.6999 113.7 32.7999 113.8 32.3999C105 32.3999 96.2996 33.3999 87.7996 35.0999ZM94.1996 38.5999C94.1996 38.1999 94.2996 37.6999 94.5996 37.3999C94.8996 36.8999 95.4996 36.4999 96.0996 36.2999C96.6996 36.1999 97.3996 36.2999 97.8996 36.5999C98.3996 36.8999 98.6996 37.3999 98.7996 37.9999C99.0996 39.1999 98.1996 40.4999 96.8996 40.6999C95.5996 40.9999 94.3996 40.1999 94.0996 38.8999C94.1996 38.8999 94.1996 38.6999 94.1996 38.5999ZM103.3 39.1999C102.8 38.7999 102.6 38.2999 102.5 37.6999C102.5 37.0999 102.6 36.4999 103 36.0999C103.4 35.5999 104 35.2999 104.7 35.1999C106 35.0999 107.1 35.9999 107.3 37.2999C107.4 38.5999 106.4 39.6999 105.1 39.7999C104.4 39.7999 103.8 39.5999 103.3 39.1999ZM74.5996 38.5999C74.6996 38.8999 75.3996 41.1999 75.3996 41.2999C75.6996 41.4999 76.2996 41.7999 76.5996 42.8999C76.6996 43.2999 76.7996 43.6999 76.7996 43.9999C76.7996 44.5999 76.6996 44.9999 76.5996 45.1999C76.5996 45.0999 77.2996 47.2999 77.3996 47.7999C81.0996 46.5999 84.8996 45.6999 88.6996 44.7999C87.8996 44.5999 87.1996 43.9999 86.6996 42.8999C85.0996 43.0999 83.6996 42.4999 83.3996 41.3999C83.3996 41.1999 83.2996 41.0999 83.2996 40.8999C83.2996 39.8999 84.0996 38.9999 85.3996 38.3999C85.3996 38.1999 85.2996 37.8999 85.2996 37.6999C85.2996 36.5999 85.6996 35.8999 86.2996 35.3999C82.3996 36.3999 78.4996 37.3999 74.5996 38.5999ZM77.5996 43.0999C77.1996 41.8999 77.7996 40.5999 79.0996 40.0999C79.6996 39.8999 80.3996 39.8999 80.9996 40.1999C81.4996 40.4999 81.8996 40.8999 82.0996 41.4999C82.4996 42.6999 81.8996 43.9999 80.5996 44.4999C79.3996 44.7999 77.9996 44.2999 77.5996 43.0999Z" fill="#FFED00"></path> <path d="M79.3988 41.0002C78.6988 41.3002 78.2987 42.1002 78.4987 42.8002C78.6987 43.5002 79.5988 43.8002 80.2988 43.6002C80.6988 43.5002 80.9987 43.2002 81.0987 42.8002C81.1987 42.5002 81.2987 42.1002 81.0987 41.8002C80.8987 41.5002 80.7988 41.2002 80.3988 41.1002C80.1988 40.8002 79.7988 40.8002 79.3988 41.0002Z" fill="#FFED00"></path> <path d="M96.2994 37.1999C95.8994 37.2999 95.5994 37.4999 95.3994 37.8999C95.1994 38.1999 95.0994 38.4999 95.1994 38.8999C95.2994 39.1999 95.4994 39.4999 95.7994 39.6999C96.0994 39.8999 96.4994 39.9999 96.8994 39.8999C97.2994 39.7999 97.5994 39.5999 97.7994 39.2999C97.9994 38.9999 98.0994 38.6999 97.9994 38.2999C97.7994 37.4999 96.9994 36.9999 96.2994 37.1999Z" fill="#FFED00"></path> <path d="M87.0988 36.1C86.5988 36.2 86.2988 37 86.2988 37.9C86.2988 38.2 86.2988 38.4 86.3988 38.7V38.8C86.3988 38.9 86.2988 38.9 86.2988 38.9C86.5988 38.4 87.0988 38.1 87.5988 37.9C88.1988 37.7 88.7988 37.8 89.2988 38.1C89.1988 38 89.0988 38 89.0988 37.9C88.5988 36.7 87.6988 35.9 87.0988 36.1ZM89.5988 38.2C89.4988 38.2 89.4988 38.2 89.5988 38.2C89.9988 38.5 90.3988 38.9 90.4988 39.4C90.5988 39.6 90.5988 39.8 90.5988 40C90.5988 40.3 90.4988 40.6 90.3988 40.9C91.3988 40.5 92.1988 39.7 92.1988 39.1C92.1988 39 92.1988 39 92.1988 38.9C91.8988 38.2 90.7988 37.9 89.5988 38.2ZM86.0988 39.2C85.0988 39.6 84.2988 40.4 84.2988 41C84.2988 41.1 84.2988 41.1 84.2988 41.2C84.4988 41.9 85.5988 42.2 86.7988 41.9C86.7988 41.9 86.7988 41.9 86.8988 41.9C86.4988 41.6 86.0988 41.2 85.9988 40.7C85.8988 40.5 85.8988 40.3 85.8988 40.1C85.8988 39.8 85.9988 39.4 86.0988 39.2ZM88.7988 42.3C88.1988 42.5 87.6988 42.4 87.1988 42.1C87.2988 42.2 87.3988 42.2 87.3988 42.2C87.7988 43.4 88.6988 44.2 89.3988 44C89.8988 43.9 90.1988 43.1 90.1988 42.2C90.1988 41.9 90.1988 41.7 90.0988 41.4V41.3C89.6988 41.8 89.2988 42.1 88.7988 42.3Z" fill="#FFED00"></path> <path d="M87.8001 38.8C87.4001 38.9 87.1001 39.2 86.9001 39.5C86.7001 39.8 86.7001 40.1 86.8001 40.5C86.9001 40.9 87.1001 41.1 87.4001 41.3C87.7001 41.5 88.1001 41.5 88.5001 41.4C88.9001 41.3 89.2001 41 89.4001 40.7C89.6001 40.4 89.6001 40.1 89.5001 39.7C89.4001 39.4 89.2001 39.1 88.9001 39C88.6001 38.7 88.2001 38.7 87.8001 38.8Z" fill="#FFED00"></path> <path d="M104.8 36.1001C104.4 36.1001 104 36.3001 103.8 36.6001C103.6 36.9001 103.5 37.2001 103.5 37.5001C103.5 37.8001 103.7 38.1001 103.9 38.4001C104.2 38.7001 104.6 38.8001 105 38.7001C105.4 38.7001 105.8 38.5001 106 38.2001C106.2 37.9001 106.3 37.6001 106.3 37.3001C106.3 36.6001 105.6 36.1001 104.8 36.1001Z" fill="#FFED00"></path> <path d="M119.5 33.7C121.8 34 123.4 35.3 123.4 36.8C123.4 38.3 121.8 39.6 119.5 39.9C119.4 40.6 119.2 41.2 119 41.7C127 41.9 135 42.8 142.8 44.4C142.2 43.9 141.9 43.2 141.9 42.2C141.9 42 141.9 41.7 142 41.5C140.7 40.9 139.9 39.9 139.9 39C139.9 38.8 139.9 38.7 140 38.5C140.3 37.4 141.6 36.8 143.3 37C143.8 35.9 144.6 35.2 145.4 35C145.3 35 145.2 35 145.2 34.9C136.7 33.1 128 32.2 119.2 32C119.2 32.6 119.5 33.5 119.5 33.7ZM127.8 39.8C126.5 39.7 125.5 38.6 125.6 37.3C125.6 36.7 125.9 36.2 126.4 35.8C126.9 35.4 127.5 35.2 128.2 35.2C128.9 35.3 129.4 35.6 129.9 36.1C130.3 36.6 130.5 37.1 130.4 37.7C130.4 38.3 130.1 38.8 129.6 39.2C129.1 39.6 128.5 39.8 127.8 39.8ZM134.4 39.7C134.2 39.3 134 38.9 134 38.5C134 38.4 134 38.2 134 38.1C134.1 37.5 134.5 37 135 36.7C135.5 36.3 136.2 36.2 136.8 36.4C137.4 36.5 138 36.9 138.3 37.5C138.6 38 138.7 38.6 138.6 39.2C138.5 39.8 138.1 40.3 137.6 40.6C137.1 41 136.4 41.1 135.8 40.9C135.3 40.6 134.7 40.2 134.4 39.7ZM147.6 37.8C147.6 38 147.6 38.3 147.5 38.5C148.8 39.1 149.6 40.1 149.6 41C149.6 41.2 149.6 41.3 149.5 41.5C149.2 42.6 147.9 43.2 146.2 43C145.7 44.1 145 44.7 144.2 44.9C148 45.7 151.7 46.7 155.4 47.8L156.3 45C156.2 44.9 156.1 44.5 156.1 44C156.1 43.7 156.1 43.3 156.3 42.9C156.6 41.8 157.2 41.4 157.5 41.3C157.5 41.1 158.2 38.8 158.2 38.8V38.7C154.3 37.5 150.4 36.5 146.4 35.6C147.2 36 147.6 36.7 147.6 37.8ZM152.3 44.4C151.7 44.2 151.2 43.7 150.9 43.1C150.7 42.5 150.6 41.9 150.8 41.4C151 40.8 151.4 40.4 151.9 40.1C152.5 39.8 153.1 39.8 153.8 40C155 40.5 155.7 41.8 155.3 43C155.1 43.6 154.7 44 154.2 44.3C153.6 44.6 152.9 44.6 152.3 44.4Z" fill="#FFED00"></path> <path d="M143.899 37.9C143.899 38 143.699 38 143.699 38.1C144.199 37.9 144.799 37.8 145.399 37.9C145.899 38.1 146.399 38.4 146.699 38.9L146.599 38.8V38.7C146.699 38.4 146.699 38.1 146.699 37.9C146.699 37 146.399 36.3 145.899 36.1C145.199 35.9 144.299 36.7 143.899 37.9ZM140.799 38.9C140.799 39 140.799 39 140.799 39.1C140.799 39.7 141.599 40.5 142.599 40.9C142.499 40.6 142.399 40.3 142.399 40C142.399 39.8 142.399 39.6 142.499 39.4C142.599 38.9 142.999 38.5 143.499 38.2C143.499 38.2 143.499 38.2 143.399 38.2C142.199 37.9 140.999 38.2 140.799 38.9ZM147.099 40.1C147.099 40.3 147.099 40.5 146.999 40.7C146.899 41.2 146.499 41.6 146.099 41.9C146.099 41.9 146.099 41.9 146.199 41.9C147.399 42.2 148.599 41.8 148.699 41.2C148.699 41.1 148.699 41.1 148.699 41C148.699 40.4 147.999 39.6 146.899 39.2C146.899 39.2 146.899 39.1 146.799 39.1C146.999 39.4 147.099 39.8 147.099 40.1ZM142.899 41.4C142.799 41.7 142.799 42 142.799 42.2C142.799 43.1 143.099 43.8 143.599 44C144.199 44.2 145.099 43.4 145.599 42.2C145.599 42.1 145.699 42.1 145.799 42.1C145.299 42.3 144.699 42.4 144.199 42.3C143.599 42.1 143.199 41.8 142.899 41.4Z" fill="#FFED00"></path> <path d="M144 38.9002C143.7 39.1002 143.5 39.3002 143.4 39.6002C143.3 39.9002 143.3 40.3002 143.5 40.6002C143.7 40.9002 144 41.2002 144.4 41.3002C144.8 41.4002 145.2 41.4002 145.5 41.2002C145.8 41.0002 146 40.8002 146.1 40.4002C146.2 40.1002 146.1 39.7002 146 39.4002C145.8 39.1002 145.5 38.8002 145.1 38.7002C144.7 38.7002 144.3 38.7002 144 38.9002Z" fill="#FFED00"></path> <path d="M152.4 41.0001C152.1 41.1001 151.9 41.4001 151.7 41.7001C151.5 42.4001 151.9 43.2001 152.6 43.5001C153 43.6001 153.4 43.6001 153.7 43.5001C154 43.4001 154.2 43.1001 154.4 42.8001C154.6 42.1001 154.2 41.3001 153.5 41.0001C153.1 40.8001 152.7 40.8001 152.4 41.0001Z" fill="#FFED00"></path> <path d="M135.5 37.3999C135.2 37.5999 135 37.8999 135 38.1999C134.9 38.4999 135 38.8999 135.2 39.1999C135.4 39.4999 135.8 39.7999 136.1 39.7999C136.9 39.9999 137.6 39.4999 137.8 38.7999C137.9 38.0999 137.4 37.3999 136.7 37.1999C136.3 37.0999 135.8 37.1999 135.5 37.3999Z" fill="#FFED00"></path> <path d="M127.099 36.5001C126.799 36.7001 126.699 37.0001 126.699 37.4001V37.5001C126.699 37.8001 126.799 38.1001 126.999 38.3001C127.199 38.6001 127.599 38.8001 127.999 38.8001C128.399 38.8001 128.799 38.7001 129.099 38.5001C129.399 38.3001 129.499 38.0001 129.499 37.6001C129.599 36.9001 128.999 36.2001 128.199 36.1001C127.699 36.1001 127.399 36.2001 127.099 36.5001Z" fill="#FFED00"></path> <path d="M61.7992 155.2C61.7992 158 60.7992 160.5 58.6992 162.7C55.3992 160.4 51.5992 158.7 47.4992 157.7C50.0992 156.9 52.2992 155.7 54.0992 154C55.3992 152.8 56.5992 151.2 57.6992 149.2C60.4992 149.9 61.7992 152 61.7992 155.2ZM54.8992 143.6C51.5992 143.6 48.4992 144 45.4992 144.7C41.2992 145.7 37.8992 147.3 35.2992 149.4C32.1992 151.9 30.6992 155 30.6992 158.6C30.6992 161.7 31.8992 164.2 34.2992 165.8C36.8992 167.6 40.4992 168.6 44.8992 168.6C49.8992 168.6 54.1992 167.4 57.7992 165C58.6992 165.6 60.2992 166.8 62.4992 168.6C64.7992 166.6 66.0992 165.4 66.4992 165L65.9992 164.6C65.8992 164.7 65.5992 164.9 65.0992 165.3C64.5992 165.8 64.0992 166 63.7992 166C63.3992 166 61.9992 165.1 59.7992 163.4C62.7992 160.6 64.3992 157.7 64.3992 154.7C64.3992 151.5 62.2992 149.3 58.0992 148.2C58.7992 146.8 59.3992 145.3 59.8992 143.8C58.1992 143.7 56.4992 143.6 54.8992 143.6ZM56.7992 148.1C55.5992 147.9 54.4992 147.8 53.4992 147.8C51.8992 147.8 50.2992 148 48.6992 148.4C46.8992 148.8 45.3992 149.4 44.1992 150.3C42.6992 151.4 41.9992 152.6 41.9992 154.1C41.9992 154.6 42.1992 155.1 42.3992 155.5C42.8992 153.3 44.1992 151.5 46.2992 150.3C48.1992 149.2 50.4992 148.6 53.0992 148.6C54.0992 148.6 55.2992 148.7 56.4992 148.9C55.7992 150.6 54.7992 152.1 53.5992 153.4C51.2992 155.9 48.0992 157.2 44.0992 157.2C43.6992 157.2 42.9992 157.2 41.9992 157.1C41.5992 157.7 40.9992 158.4 40.0992 159.4C40.8992 159.2 41.6992 159.2 42.5992 159.2C44.8992 159.2 47.3992 159.8 50.1992 160.9C52.4992 161.8 54.7992 163.1 56.9992 164.6C54.0992 166.8 50.5992 167.9 46.2992 167.9C44.3992 167.9 42.5992 167.6 40.7992 167.1C35.8992 165.7 33.4992 162.8 33.4992 158.3C33.4992 156.7 33.7992 155.1 34.4992 153.6C35.3992 151.4 36.9992 149.5 39.0992 148.1C41.9992 146.1 46.2992 145.1 51.9992 145.1C54.0992 145.1 55.9992 145.2 57.6992 145.5C57.3992 146.4 57.1992 147.3 56.7992 148.1Z" fill="#FFED00"></path> <path d="M81.3 153.6C80.6 154.8 79.6 156.8 78.3 159.6C76.8 162.9 76 164.8 76 165.3C76 165.7 76.2 165.8 76.6 165.8C77 165.8 77.5 165.7 78.2 165.4L78.5 165.9C77.7 166.3 76 166.9 73.3 167.9C73.6 166 74.3 164 75.3 161.7C73.1 164.2 71.1 166 69.3 167C68.3 167.6 67.4 167.9 66.8 167.9C65.9 167.9 65.5 167.5 65.5 166.6C65.5 165.7 66 164.1 67.1 162C67.6 161 68.4 159.6 69.4 157.6C69.9 156.7 70.2 156 70.2 155.6C70.2 155.2 70 155 69.5 155C69.3 155 68.9 155.1 68.4 155.2L68.2 154.7C70.3 154.1 71.9 153.6 73.1 153.2C73.1 154.3 72.6 155.6 71.8 157.3C71.3 158.1 70.6 159.4 69.7 161.1C68.4 163.5 67.8 165 67.8 165.6C67.8 166.1 68 166.3 68.5 166.3C69.7 166.3 71.5 165 73.7 162.5C75.7 160.2 77.4 157.4 78.8 154.2C79.4 154.2 80.3 154 81.3 153.6Z" fill="#FFED00"></path> <path d="M91.8 165.6L92.2 166.1C90.8 167 89 167.8 86.6 168.3C86.5 167.4 87.3 165.3 88.9 162.1C87.3 163.8 85.7 165.2 84 166.3C82 167.6 80.5 168.3 79.4 168.3C78.5 168.3 78 167.8 78 166.7C78 164.3 79.4 161.8 82.2 159.2C85.4 156.3 89.1 154.5 93.2 153.7C94.3 153.5 95.3 153.4 96.1 153.4C96.5 153.4 96.7 153.5 96.7 153.8C96.7 154.1 96.5 154.5 96.1 155.2C95.2 155.1 94.3 155 93.3 155C91.1 155 89.1 155.4 87.3 156.3C84.6 157.6 82.5 159.4 81.1 161.8C80.4 163 80 164.1 80 165.2C80 166.2 80.4 166.7 81.2 166.7C81.9 166.7 82.8 166.2 84 165.2C84.8 164.5 85.6 163.8 86.3 162.9C88.2 160.7 89.4 158.3 90 155.8C90.6 156.1 90.8 156.7 90.8 157.5C90.8 158.7 90.2 160 88.9 161.5C89.5 161.5 90.3 161.3 91.2 161C89.9 163.7 89.2 165.3 89.2 165.7C89.2 166 89.4 166.2 89.7 166.2C90.3 166.3 90.9 166 91.8 165.6Z" fill="#FFED00"></path> <path d="M105.2 143.9C105.2 145.3 104.2 148.2 102.1 152.6C98.4 160.3 96.5 164.7 96.5 165.8C96.5 166.3 96.7 166.5 97.2 166.5C97.6 166.5 98.3 166.1 99.4 165.3L99.8 165.8C97.7 167.5 96.1 168.3 95.1 168.3C94.3 168.3 94 167.8 94 166.8C94 165.5 95 162.8 96.9 158.6C97.7 156.9 99 154.2 100.6 150.8C101.7 148.4 102.3 147 102.3 146.6C102.3 146.3 102.1 146.1 101.7 146.1C101.5 146.1 101.1 146.2 100.4 146.4L100.2 145.9C102.6 144.9 104.3 144.3 105.2 143.9Z" fill="#FFED00"></path> <path d="M108.198 153.1V153.3C108.198 154.2 107.698 155.9 106.598 158.2C106.398 158.7 105.598 160.2 104.298 162.9C103.498 164.5 103.098 165.5 103.098 165.8C103.098 166.1 103.298 166.3 103.698 166.3C103.898 166.3 104.398 166.2 104.998 165.9L105.298 166.4C102.798 167.4 101.198 168.1 100.398 168.3C100.498 167 100.798 165.7 101.398 164.3C101.598 163.7 102.198 162.4 103.198 160.5C104.598 157.7 105.398 156 105.398 155.6C105.398 155.2 105.198 155.1 104.898 155.1C104.598 155.1 103.998 155.3 102.998 155.6L102.798 155C104.498 154.5 106.398 153.9 108.198 153.1ZM109.398 148.6C109.998 148.6 110.298 148.9 110.298 149.4C110.298 149.7 110.198 150 109.898 150.2C109.598 150.4 109.298 150.6 108.998 150.6C108.398 150.6 108.098 150.3 108.098 149.8C108.098 149.5 108.198 149.2 108.498 149C108.698 148.7 108.998 148.6 109.398 148.6Z" fill="#FFED00"></path> <path d="M118.299 153.5L117.999 154H115.299C114.899 154.7 114.199 156.2 112.999 158.4C112.299 159.7 111.699 161 110.999 162.2C110.199 164.2 109.799 165.4 109.799 165.9C109.799 166.5 110.099 166.7 110.599 166.7C111.299 166.7 112.199 166.3 113.499 165.6L113.799 166.1C111.899 167.4 110.199 168 108.599 168C107.599 168 107.199 167.7 107.199 167C107.199 166.4 107.699 165 108.799 162.7C109.299 161.8 109.899 160.4 110.799 158.6C111.899 156.4 112.599 154.9 112.999 154H110.399L110.699 153.5C111.999 153.5 112.899 153.3 113.399 152.8C113.699 152.5 114.099 151.7 114.699 150.3H115.099C115.699 150.3 116.299 150.2 116.999 150.1C116.699 150.8 116.199 151.8 115.699 153L115.499 153.4L118.299 153.5Z" fill="#FFED00"></path> <path d="M121.8 153.9C122 154.4 122.1 155 122.1 155.7C122.1 157.2 121.7 159.2 120.9 161.9C125.3 156.7 128.7 154.1 130.9 154.1C131.7 154.1 132.1 154.7 132.1 155.8C132.1 157.6 131.4 159.5 129.9 161.7C127.4 165.3 124.5 167.9 121.1 169.5C119.8 170.1 118.3 170.6 116.5 170.8C115 171 113.8 171.3 113.2 171.7C112.3 172.2 111.8 172.9 111.8 173.8C111.8 174.6 112.3 175.1 113.2 175.5C113.9 175.8 114.7 175.9 115.7 175.9C117.1 175.9 118.3 175.6 119.5 175C119.4 175.5 119.2 175.9 119 176.1C118.3 176.8 117.2 177.2 115.7 177.2C114.5 177.2 113.5 177 112.6 176.5C111.6 175.9 111.1 175.1 111.1 174.1C111.1 172.8 111.8 171.5 113.3 170.1C113.9 169.5 114.8 169.1 115.9 168.9C116.3 168.8 117.3 168.7 118.9 168.5C120.9 168.3 122.6 167.7 124 166.7C126.2 165.1 127.8 163.2 128.9 160.9C129.5 159.5 129.8 158.4 129.8 157.5C129.8 156.6 129.4 156.1 128.7 156.1C127.1 156.1 125 157.8 122.4 161.1C120.6 163.5 119.1 165.8 117.9 168.1H117.2C118.8 162.9 119.6 159.2 119.6 157.1C119.6 156.4 119.3 156 118.8 156C118.6 156 118.2 156.1 117.6 156.3L117.4 155.8C117.8 155.7 118.5 155.3 119.6 154.8C120.3 154.7 121 154.3 121.8 153.9Z" fill="#FFED00"></path> <path d="M154.599 153.9L154.399 154.4H151.299L145.999 168.1C145.499 168.1 145.199 168.2 144.999 168.3C144.799 168.4 144.599 168.7 144.399 169.1C143.599 170.9 142.899 172.2 142.299 173.1C141.399 174.5 140.399 175.7 139.399 176.5C138.099 177.6 136.799 178.1 135.599 178.1C134.399 178.1 133.699 177.7 133.699 176.8C133.699 176.7 133.699 176.5 133.799 176.3C134.499 176.4 135.199 176.5 135.799 176.5C138.299 176.5 140.399 175.1 142.099 172.3C142.899 171 143.599 169.5 144.299 167.7C145.599 164.5 147.199 160.3 148.999 155L149.199 154.4H146.999L147.199 153.9C147.399 153.9 147.599 153.9 147.999 153.8C148.999 153.8 149.699 153.1 150.299 152C150.999 150.5 151.899 149.2 152.799 148.3C153.699 147.4 154.899 146.5 156.499 145.6C158.599 144.4 160.399 143.8 161.699 143.8C162.599 143.8 162.999 144 162.999 144.3C162.999 144.4 162.899 144.8 162.599 145.5L161.699 148H160.999C161.299 147.3 161.399 146.8 161.399 146.4C161.399 145.8 160.799 145.4 159.599 145.4C157.199 145.4 155.199 146.5 153.799 148.8C153.099 149.8 152.399 151.4 151.399 153.7L154.599 153.9Z" fill="#FFED00"></path> <path d="M164 155.2C163.3 155.1 162.7 155.1 162.2 155.1C159 155.1 156.6 156.1 154.8 158.2C154 159.1 153.4 160.2 152.8 161.4C152.2 162.8 151.8 164 151.8 165C151.8 166.3 152.5 167 153.8 167C155.2 167 156.8 165.9 158.5 163.7C160 161.8 160.7 160.1 160.7 158.6C160.7 157.7 160.3 157.2 159.6 157.2C158.5 157.2 157.5 158.1 156.6 160C156.5 159.8 156.5 159.5 156.5 159.4C156.5 158.8 156.8 158.2 157.5 157.6C158.7 156.5 159.9 155.9 160.9 155.9C161.6 155.9 162.1 156.1 162.5 156.6C162.9 157 163.1 157.6 163.1 158.2C163.1 160.2 161.8 162.3 159.1 164.6C156.3 167 154 168.2 152.1 168.2C151.3 168.2 150.7 167.9 150.2 167.5C149.7 167 149.5 166.4 149.5 165.7C149.5 163.3 150.6 161 152.9 158.7C154.9 156.7 157.3 155.2 160 154.3C161.4 153.8 162.5 153.6 163.3 153.6C163.9 153.6 164.2 153.8 164.2 154.3C164.2 154.5 164.2 154.8 164 155.2Z" fill="#FFED00"></path> <path d="M175.699 155.2C174.999 155.1 174.399 155.1 173.899 155.1C170.699 155.1 168.299 156.1 166.499 158.2C165.699 159.1 165.099 160.2 164.499 161.4C163.899 162.8 163.499 164 163.499 165C163.499 166.3 164.199 167 165.499 167C166.899 167 168.499 165.9 170.299 163.7C171.799 161.8 172.499 160.1 172.499 158.6C172.499 157.7 172.099 157.2 171.399 157.2C170.399 157.2 169.299 158.1 168.399 160C168.299 159.8 168.299 159.5 168.299 159.4C168.299 158.8 168.599 158.2 169.299 157.6C170.499 156.5 171.699 155.9 172.699 155.9C173.399 155.9 173.899 156.1 174.299 156.6C174.699 157 174.899 157.6 174.899 158.2C174.899 160.2 173.599 162.3 170.899 164.6C168.099 167 165.799 168.2 163.899 168.2C163.099 168.2 162.499 167.9 161.999 167.5C161.499 167 161.299 166.4 161.299 165.7C161.299 163.3 162.399 161 164.699 158.7C166.699 156.7 169.099 155.2 171.799 154.3C173.199 153.8 174.299 153.6 175.099 153.6C175.699 153.6 175.999 153.8 175.999 154.3C175.999 154.5 175.899 154.8 175.699 155.2Z" fill="#FFED00"></path> <path d="M193.5 143.9C193.4 144.8 193 146.3 192.1 148.3C191.7 149.2 191 150.6 190.2 152.4L189.6 153.7C190.4 154 190.8 154.6 190.9 155.4C190.5 155.3 189.9 155.2 189 155.1L185.1 164.2C184.7 165.1 184.5 165.6 184.5 165.9C184.5 166.2 184.7 166.4 185 166.4C185.3 166.4 186 166.1 187 165.6L187.4 166C186.1 166.9 184.1 167.6 181.5 168.3C182 166.4 182.8 164.4 183.7 162.4C184.1 161.6 184.8 160 185.9 157.5C186.4 156.4 186.7 155.5 187 155C185 155.1 183.1 155.6 181.2 156.6C179.4 157.6 177.9 158.8 176.7 160.3C175.4 161.9 174.8 163.5 174.8 165C174.8 166 175.2 166.5 176 166.5C177.1 166.5 178.3 165.8 179.8 164.3C181.8 162.3 183.3 159.8 184.2 156.9C184.4 157.3 184.5 157.8 184.5 158.2C184.5 160.4 182.8 162.8 179.4 165.5C177.1 167.3 175.3 168.2 174 168.2C173 168.2 172.5 167.7 172.5 166.6C172.5 164.1 174 161.5 177.1 158.8C180.3 156 183.8 154.3 187.7 153.7C189.4 149.7 190.3 147.5 190.3 147.1C190.3 146.6 190 146.4 189.5 146.4C189.2 146.4 188.8 146.5 188.4 146.6L188.2 146.1C190.4 145.3 192.2 144.6 193.5 143.9Z" fill="#FFED00"></path> <path d="M200.5 153.5L200.3 153.8C199.6 155 198.8 156.1 198 157.1L197.5 156.8L197.6 156.5C197.9 156 198 155.6 198 155.4C198 155 197.6 154.7 196.7 154.7C196 154.7 195.3 154.9 194.8 155.3C194 155.9 193.7 156.5 193.7 157.3C193.7 157.7 194.1 158.8 195 160.5C195.3 161.1 195.5 161.8 195.5 162.6C195.5 164 194.6 165.3 192.9 166.6C191.4 167.7 190.1 168.2 188.9 168.2C188.3 168.2 187.8 168.1 187.3 167.8C186.8 167.5 186.6 167.1 186.6 166.6C186.6 166 186.8 165.5 187.1 165C187.9 166.2 188.9 166.8 190.2 166.8C191.1 166.8 191.9 166.5 192.7 166C193.4 165.4 193.8 164.8 193.8 163.9C193.8 163.5 193.3 162.2 192.2 160.2C192 159.8 191.9 159.2 191.9 158.7C191.9 157.6 192.6 156.4 194.1 155.1C195.5 153.9 197.1 153.3 199.2 153.3C199.6 153.5 200.1 153.5 200.5 153.5Z" fill="#FFED00"></path> </g> <defs> <clipPath id="clip0_663_1354"> <rect width="234" height="179" fill="white"></rect> </clipPath> </defs> </svg> 